<svg width="12" height="12" viewBox="0 0 12 12" fill="none" xmlns="http://www.w3.org/2000/svg">
<g clip-path="url(#clip0_970_26109)">
<path fill-rule="evenodd" clip-rule="evenodd" d="M12 6C12 2.69063 9.30937 -1.17611e-07 6 -2.62268e-07C2.69063 -4.06926e-07 -1.17611e-07 2.69062 -2.62268e-07 6C-4.06926e-07 9.30937 2.69062 12 6 12C9.30937 12 12 9.30937 12 6Z" fill="#86959E"/>
<path d="M6.35 3.59961C6.35 3.40631 6.1933 3.24961 6 3.24961C5.8067 3.24961 5.65 3.40631 5.65 3.59961L6.35 3.59961ZM5.75251 8.6471C5.8892 8.78378 6.1108 8.78378 6.24749 8.6471L8.47487 6.41971C8.61156 6.28303 8.61156 6.06142 8.47487 5.92474C8.33819 5.78805 8.11658 5.78805 7.9799 5.92474L6 7.90463L4.0201 5.92474C3.88342 5.78805 3.66181 5.78805 3.52513 5.92474C3.38844 6.06142 3.38844 6.28303 3.52513 6.41971L5.75251 8.6471ZM5.65 3.59961L5.65 8.39961L6.35 8.39961L6.35 3.59961L5.65 3.59961Z" fill="#E3EDF2"/>
</g>
<defs>
<clipPath id="clip0_970_26109">
<rect width="12" height="12" fill="white" transform="translate(12) rotate(90)"/>
</clipPath>
</defs>
</svg>
