<svg width="12" height="12" viewBox="0 0 12 12" fill="none" xmlns="http://www.w3.org/2000/svg">
<path fill-rule="evenodd" clip-rule="evenodd" d="M6 0C2.69063 0 0 2.69063 0 6C0 9.30937 2.69063 12 6 12C9.30937 12 12 9.30937 12 6C12 2.69063 9.30937 0 6 0Z" fill="#86959E"/>
<path d="M3.59961 5.65C3.40631 5.65 3.24961 5.8067 3.24961 6C3.24961 6.1933 3.40631 6.35 3.59961 6.35L3.59961 5.65ZM8.6471 6.24749C8.78378 6.1108 8.78378 5.8892 8.6471 5.75251L6.41971 3.52513C6.28303 3.38844 6.06142 3.38844 5.92474 3.52513C5.78805 3.66181 5.78805 3.88342 5.92474 4.0201L7.90463 6L5.92474 7.9799C5.78805 8.11658 5.78805 8.33819 5.92474 8.47487C6.06142 8.61156 6.28303 8.61156 6.41971 8.47487L8.6471 6.24749ZM3.59961 6.35L8.39961 6.35L8.39961 5.65L3.59961 5.65L3.59961 6.35Z" fill="#E3EDF2"/>
</svg>
