<svg width="14" height="14" viewBox="0 0 14 14" fill="none" xmlns="http://www.w3.org/2000/svg">
<g clip-path="url(#clip0_970_26120)">
<path d="M8.95998 3.42093C8.22608 1.92238 6.69087 0.931641 4.96884 0.931641C2.50481 0.931641 0.500196 2.92488 0.500196 5.3749C0.500196 6.04072 0.643142 6.6789 0.925276 7.27392L0.507584 9.36263C0.454417 9.62851 0.688971 9.86352 0.954906 9.81091L3.06936 9.39287C3.35406 9.52792 3.64858 9.63062 3.95121 9.70138C3.27286 6.4885 5.70817 3.47267 8.95998 3.42093Z" fill="#86959E"/>
<path d="M13.0747 10.5238C13.1477 10.3699 13.2111 10.2131 13.2654 10.0537H13.2515C14.2023 7.26289 12.2027 4.32973 9.25085 4.18691C9.2508 4.18676 9.25077 4.1866 9.25072 4.18645C6.7108 4.0694 4.60059 6.10304 4.60059 8.62473C4.60059 11.0727 6.59017 13.0644 9.03732 13.0679C9.70109 13.067 10.3373 12.9241 10.9306 12.6427C13.2463 13.1005 13.0658 13.068 13.1189 13.068C13.3596 13.068 13.5394 12.8474 13.4924 12.6125L13.0747 10.5238Z" fill="#86959E"/>
</g>
<defs>
<clipPath id="clip0_970_26120">
<rect width="13" height="13" fill="white" transform="translate(0.5 0.5)"/>
</clipPath>
</defs>
</svg>
