<svg width="14" height="12" viewBox="0 0 14 12" fill="none" xmlns="http://www.w3.org/2000/svg">
<path d="M8.68897 6.07853C8.17618 5.59291 7.49678 5.32227 6.79054 5.32227C6.08429 5.32227 5.40489 5.59291 4.8921 6.07853L2.60225 8.24416C1.28975 9.43712 2.23663 11.7176 4.0085 11.6285C4.96944 11.6027 5.74991 11.1106 6.78819 11.1293C7.86397 11.1106 8.66319 11.5442 9.62882 11.6285C11.3702 11.6684 12.2702 9.41369 10.9765 8.24416L8.68897 6.07853Z" fill="#86959E"/>
<path d="M12.6311 3.4315C11.7358 3.25572 11.0514 4.25181 10.8733 5.10962C10.3389 7.76509 12.9124 8.27134 13.5147 5.69556C13.7608 4.59166 13.3718 3.59556 12.6311 3.4315Z" fill="#86959E"/>
<path d="M8.83613 4.86582C9.72676 4.86582 10.451 3.85332 10.451 2.61113C10.3619 -0.379492 7.31035 -0.379492 7.22363 2.61113C7.22363 3.85332 7.94785 4.86582 8.83613 4.86582Z" fill="#86959E"/>
<path d="M2.70746 5.10962C2.53168 4.25181 1.84496 3.25572 0.94965 3.4315C-0.709725 3.85103 -0.00659991 7.38775 1.61528 7.39712C2.53402 7.36665 2.95824 6.30025 2.70746 5.10962Z" fill="#86959E"/>
<path d="M4.74375 4.86582C5.63203 4.86582 6.35625 3.85332 6.35625 2.61113C6.26953 -0.379492 3.21797 -0.379492 3.12891 2.61113C3.12891 3.85332 3.85313 4.86582 4.74375 4.86582Z" fill="#86959E"/>
</svg>
