<svg width="34" height="34" viewBox="0 0 34 34" fill="none" xmlns="http://www.w3.org/2000/svg">
<circle cx="17" cy="17" r="17" transform="matrix(-1 0 0 1 34 0)" fill="#FF773D"/>
<path fill-rule="evenodd" clip-rule="evenodd" d="M23.0001 15.2063C23.0582 15.2645 23.1121 15.3254 23.1616 15.3885C23.2255 15.4385 23.287 15.4929 23.3458 15.5517L23.4142 15.6201C24.1953 16.4011 24.1953 17.6674 23.4142 18.4485L17.966 23.8967C17.1849 24.6777 15.9186 24.6777 15.1376 23.8967L15.0692 23.8283C14.2881 23.0473 14.2881 21.7809 15.0692 20.9999L17.0859 18.9832L11.7769 18.9832C10.6723 18.9832 9.77686 18.0877 9.77686 16.9832C9.77686 15.8786 10.6723 14.9832 11.7769 14.9832L16.9832 14.9832L15.4827 13.4826C14.7016 12.7016 14.7016 11.4352 15.4827 10.6542L15.5511 10.5858C16.3321 9.80474 17.5985 9.80474 18.3795 10.5858L23.0001 15.2063Z" fill="white"/>
</svg>
