<svg width="18" height="21" viewBox="0 0 18 21" fill="none" xmlns="http://www.w3.org/2000/svg">
<path d="M13.7502 2.56V1C13.7502 0.59 13.4102 0.25 13.0002 0.25C12.5902 0.25 12.2502 0.59 12.2502 1V2.5H5.75023V1C5.75023 0.59 5.41023 0.25 5.00023 0.25C4.59023 0.25 4.25023 0.59 4.25023 1V2.56C1.55023 2.81 0.240229 4.42 0.0402292 6.81C0.0202292 7.1 0.260229 7.34 0.540229 7.34H17.4602C17.7502 7.34 17.9902 7.09 17.9602 6.81C17.7602 4.42 16.4502 2.81 13.7502 2.56Z" fill="#E3EDF2"/>
<path d="M17 8.84009H1C0.45 8.84009 0 9.2901 0 9.8401V16.0001C0 19.0001 1.5 21.0001 5 21.0001H13C16.5 21.0001 18 19.0001 18 16.0001V9.8401C18 9.2901 17.55 8.84009 17 8.84009ZM6.21 17.2101C6.16 17.2501 6.11 17.3001 6.06 17.3301C6 17.3701 5.94 17.4001 5.88 17.4201C5.82 17.4501 5.76 17.4701 5.7 17.4801C5.63 17.4901 5.57 17.5001 5.5 17.5001C5.37 17.5001 5.24 17.4701 5.12 17.4201C4.99 17.3701 4.89 17.3001 4.79 17.2101C4.61 17.0201 4.5 16.7601 4.5 16.5001C4.5 16.2401 4.61 15.9801 4.79 15.7901C4.89 15.7001 4.99 15.6301 5.12 15.5801C5.3 15.5001 5.5 15.4801 5.7 15.5201C5.76 15.5301 5.82 15.5501 5.88 15.5801C5.94 15.6001 6 15.6301 6.06 15.6701L6.21 15.7901C6.39 15.9801 6.5 16.2401 6.5 16.5001C6.5 16.7601 6.39 17.0201 6.21 17.2101ZM6.21 13.7101C6.02 13.8901 5.76 14.0001 5.5 14.0001C5.24 14.0001 4.98 13.8901 4.79 13.7101C4.61 13.5201 4.5 13.2601 4.5 13.0001C4.5 12.7401 4.61 12.4801 4.79 12.2901C5.07 12.0101 5.51 11.9201 5.88 12.0801C6.01 12.1301 6.12 12.2001 6.21 12.2901C6.39 12.4801 6.5 12.7401 6.5 13.0001C6.5 13.2601 6.39 13.5201 6.21 13.7101ZM9.71 17.2101C9.52 17.3901 9.26 17.5001 9 17.5001C8.74 17.5001 8.48 17.3901 8.29 17.2101C8.11 17.0201 8 16.7601 8 16.5001C8 16.2401 8.11 15.9801 8.29 15.7901C8.66 15.4201 9.34 15.4201 9.71 15.7901C9.89 15.9801 10 16.2401 10 16.5001C10 16.7601 9.89 17.0201 9.71 17.2101ZM9.71 13.7101C9.66 13.7501 9.61 13.7901 9.56 13.8301C9.5 13.8701 9.44 13.9001 9.38 13.9201C9.32 13.9501 9.26 13.9701 9.2 13.9801C9.13 13.9901 9.07 14.0001 9 14.0001C8.74 14.0001 8.48 13.8901 8.29 13.7101C8.11 13.5201 8 13.2601 8 13.0001C8 12.7401 8.11 12.4801 8.29 12.2901C8.38 12.2001 8.49 12.1301 8.62 12.0801C8.99 11.9201 9.43 12.0101 9.71 12.2901C9.89 12.4801 10 12.7401 10 13.0001C10 13.2601 9.89 13.5201 9.71 13.7101ZM13.21 17.2101C13.02 17.3901 12.76 17.5001 12.5 17.5001C12.24 17.5001 11.98 17.3901 11.79 17.2101C11.61 17.0201 11.5 16.7601 11.5 16.5001C11.5 16.2401 11.61 15.9801 11.79 15.7901C12.16 15.4201 12.84 15.4201 13.21 15.7901C13.39 15.9801 13.5 16.2401 13.5 16.5001C13.5 16.7601 13.39 17.0201 13.21 17.2101ZM13.21 13.7101C13.16 13.7501 13.11 13.7901 13.06 13.8301C13 13.8701 12.94 13.9001 12.88 13.9201C12.82 13.9501 12.76 13.9701 12.7 13.9801C12.63 13.9901 12.56 14.0001 12.5 14.0001C12.24 14.0001 11.98 13.8901 11.79 13.7101C11.61 13.5201 11.5 13.2601 11.5 13.0001C11.5 12.7401 11.61 12.4801 11.79 12.2901C11.89 12.2001 11.99 12.1301 12.12 12.0801C12.3 12.0001 12.5 11.9801 12.7 12.0201C12.76 12.0301 12.82 12.0501 12.88 12.0801C12.94 12.1001 13 12.1301 13.06 12.1701C13.11 12.2101 13.16 12.2501 13.21 12.2901C13.39 12.4801 13.5 12.7401 13.5 13.0001C13.5 13.2601 13.39 13.5201 13.21 13.7101Z" fill="#E3EDF2"/>
</svg>
