<svg width="33" height="32" viewBox="0 0 33 32" fill="none" xmlns="http://www.w3.org/2000/svg">
<path d="M16.5 0C7.678 0 0.5 7.178 0.5 16C0.5 24.822 7.678 32 16.5 32C25.322 32 32.5 24.822 32.5 16C32.5 7.178 25.322 0 16.5 0ZM8.5 12C8.5 10.898 9.398 10 10.5 10C11.602 10 12.5 10.898 12.5 12C12.5 13.102 11.602 14 10.5 14C9.398 14 8.5 13.102 8.5 12ZM23.57 24.344C23.374 24.54 23.118 24.636 22.862 24.636C22.606 24.636 22.35 24.538 22.154 24.344C19.13 21.32 13.862 21.32 10.84 24.344C10.45 24.734 9.816 24.734 9.426 24.344C9.036 23.954 9.036 23.32 9.426 22.93C11.318 21.042 13.828 20 16.5 20C19.172 20 21.682 21.042 23.57 22.93C23.96 23.32 23.96 23.954 23.57 24.344ZM22.5 14C21.398 14 20.5 13.102 20.5 12C20.5 10.898 21.398 10 22.5 10C23.602 10 24.5 10.898 24.5 12C24.5 13.102 23.602 14 22.5 14Z" fill="#D4DEE3"/>
</svg>
