<svg width="32" height="32" viewBox="0 0 32 32" fill="none" xmlns="http://www.w3.org/2000/svg">
<g clip-path="url(#clip0_1116_41297)">
<path d="M16 32C7.17756 32 0 24.8224 0 16C0 7.17756 7.17756 0 16 0C24.8224 0 32 7.17756 32 16C32 24.8224 24.8224 32 16 32Z" fill="#FFD464"/>
<path d="M15.7422 27.9297C9.022 27.9297 3.55469 22.4624 3.55469 15.7422C3.55469 9.022 9.022 3.55469 15.7422 3.55469C22.4624 3.55469 27.9297 9.022 27.9297 15.7422C27.9297 22.4624 22.4624 27.9297 15.7422 27.9297Z" fill="#FFAD30" fill-opacity="0.65"/>
<path d="M15.2394 9.45297C15.4789 8.71592 16.5216 8.71592 16.7611 9.45297L17.8163 12.7006C17.9234 13.0302 18.2305 13.2534 18.5771 13.2534L21.9919 13.2534C22.7669 13.2534 23.0891 14.2451 22.4621 14.7006L19.6995 16.7078C19.4191 16.9115 19.3018 17.2726 19.4089 17.6022L20.4641 20.8498C20.7036 21.5869 19.86 22.1998 19.2331 21.7443L16.4704 19.7371C16.1901 19.5334 15.8104 19.5334 15.53 19.7371L12.7674 21.7443C12.1404 22.1998 11.2968 21.5869 11.5363 20.8498L12.5915 17.6022C12.6986 17.2726 12.5813 16.9115 12.3009 16.7078L9.5383 14.7006C8.91133 14.2451 9.23355 13.2534 10.0085 13.2534L13.4233 13.2534C13.7699 13.2534 14.077 13.0302 14.1841 12.7006L15.2394 9.45297Z" fill="#FFD464"/>
</g>
<defs>
<clipPath id="clip0_1116_41297">
<rect width="32" height="32" fill="white"/>
</clipPath>
</defs>
</svg>
