<svg width="14" height="14" viewBox="0 0 14 14" fill="none" xmlns="http://www.w3.org/2000/svg">
<g clip-path="url(#clip0_1116_41518)">
<path d="M4.66639 4.66668C7.33717 4.66668 9.33281 3.61087 9.33281 2.66681C9.33281 1.72284 7.33713 0.666992 4.66639 0.666992C1.99564 0.666992 0 1.72284 0 2.66681C0 3.61087 1.9956 4.66668 4.66639 4.66668Z" fill="white"/>
<path d="M4.66639 12.6665C5.05621 12.6665 5.4314 12.6438 5.78829 12.6025C5.48745 12.2159 5.23867 11.7869 5.0523 11.3261C4.92424 11.3304 4.79573 11.3334 4.66634 11.3334C3.14026 11.3334 1.69503 11.031 0.597 10.482C0.380798 10.3739 0.181842 10.2577 0 10.1348V10.6666C0 11.6106 1.9956 12.6665 4.66639 12.6665Z" fill="white"/>
<path d="M4.66643 9.99948C4.68012 9.99948 4.69359 9.99925 4.70723 9.99921C4.6799 9.7807 4.66563 9.55814 4.66563 9.33234C4.66563 9.10662 4.67985 8.8842 4.70723 8.66586C4.69359 8.66586 4.68008 8.66635 4.66643 8.66635C3.14035 8.66635 1.69517 8.36396 0.597089 7.81492C0.380842 7.70682 0.181842 7.59068 0 7.46777V7.99961C4.44494e-05 8.94363 1.99564 9.99948 4.66643 9.99948Z" fill="white"/>
<path d="M4.66643 7.33342C4.79871 7.33342 4.92921 7.33075 5.05807 7.32568C5.26503 6.81794 5.54786 6.34895 5.8927 5.93304C5.49346 5.97704 5.08314 6.00038 4.66643 6.00038C3.14035 6.00038 1.69517 5.69799 0.597089 5.14895C0.380842 5.04081 0.181842 4.9247 0 4.80176V5.33364C4.44494e-05 6.27765 1.99564 7.33342 4.66643 7.33342Z" fill="white"/>
<path d="M6.6675 7.12259C6.37902 7.55628 6.17291 8.04918 6.07152 8.57884C6.02471 8.823 6 9.07489 6 9.33248C6 9.52614 6.01414 9.71656 6.04085 9.90294C6.1065 10.3608 6.24994 10.7937 6.45734 11.1881C6.67496 11.602 6.96286 11.9734 7.30526 12.2861C8.0168 12.936 8.96313 13.3329 10.0004 13.3329C12.2063 13.3329 14.0009 11.5383 14.0009 9.33248C14.0009 7.12659 12.2063 5.33203 10.0004 5.33203C9.77246 5.33203 9.54893 5.3515 9.33121 5.3883C8.22229 5.57584 7.26716 6.2212 6.6675 7.12259Z" fill="white"/>
</g>
<defs>
<clipPath id="clip0_1116_41518">
<rect width="14" height="14" fill="white"/>
</clipPath>
</defs>
</svg>
