<svg width="20" height="20" viewBox="0 0 20 20" fill="none" xmlns="http://www.w3.org/2000/svg">
<path d="M18.9789 5.31398C18.7628 4.51072 18.1295 3.87752 17.3264 3.66122C15.8591 3.25977 9.99 3.25977 9.99 3.25977C9.99 3.25977 4.12113 3.25977 2.65388 3.646C1.86619 3.86207 1.21742 4.51083 1.00136 5.31398C0.615234 6.78111 0.615234 9.82375 0.615234 9.82375C0.615234 9.82375 0.615234 12.8817 1.00136 14.3335C1.21765 15.1367 1.85074 15.7699 2.654 15.9862C4.13658 16.3877 9.99023 16.3877 9.99023 16.3877C9.99023 16.3877 15.8591 16.3877 17.3264 16.0015C18.1296 15.7853 18.7628 15.1521 18.9791 14.349C19.3651 12.8817 19.3651 9.8392 19.3651 9.8392C19.3651 9.8392 19.3806 6.78111 18.9789 5.31398ZM8.12141 12.6347V7.01286L13.0019 9.82375L8.12141 12.6347Z" fill="#86959E"/>
</svg>
