<svg width="18" height="18" viewBox="0 0 18 18" fill="none" xmlns="http://www.w3.org/2000/svg">
<path d="M15.2378 3.27697C14.0905 2.75058 12.8603 2.36273 11.574 2.14058C11.5505 2.13629 11.5271 2.14701 11.5151 2.16842C11.3568 2.44985 11.1816 2.81695 11.0588 3.10551C9.67534 2.89837 8.29891 2.89837 6.94377 3.10551C6.82101 2.81055 6.63939 2.44985 6.48045 2.16842C6.46839 2.14772 6.44498 2.13699 6.42156 2.14058C5.13597 2.36199 3.90571 2.74984 2.75772 3.27697C2.74777 3.28126 2.73926 3.2884 2.7336 3.29768C0.400069 6.78395 -0.239212 10.1845 0.074382 13.5429C0.0757882 13.5594 0.0850343 13.5751 0.097796 13.5851C1.63739 14.7158 3.12879 15.4022 4.59245 15.8571C4.61587 15.8643 4.64069 15.8557 4.65559 15.8364C5.00181 15.3636 5.31045 14.8651 5.57507 14.3408C5.59068 14.3101 5.57577 14.2736 5.54385 14.2615C5.0543 14.0758 4.58816 13.8494 4.13975 13.5923C4.10427 13.5716 4.10143 13.5208 4.13409 13.4965C4.22844 13.4258 4.32284 13.3523 4.41294 13.278C4.42926 13.2644 4.45197 13.2616 4.47113 13.2701C7.41694 14.6151 10.6061 14.6151 13.5172 13.2701C13.5363 13.2608 13.5591 13.2637 13.5761 13.2772C13.6662 13.3515 13.7606 13.4258 13.8556 13.4965C13.8883 13.5208 13.8861 13.5715 13.8507 13.5922C13.4023 13.8544 12.9361 14.0758 12.4459 14.2608C12.4139 14.2729 12.3997 14.3101 12.4154 14.3407C12.6857 14.8643 12.9943 15.3628 13.3342 15.8357C13.3484 15.8557 13.3739 15.8643 13.3973 15.8571C14.8681 15.4022 16.3595 14.7157 17.8991 13.5851C17.9126 13.5751 17.9211 13.5601 17.9225 13.5437C18.2978 9.66096 17.2938 6.28824 15.2611 3.29838C15.2562 3.2884 15.2477 3.28126 15.2378 3.27697ZM6.01505 11.498C5.12816 11.498 4.39737 10.6838 4.39737 9.68381C4.39737 8.68386 5.11396 7.86961 6.01505 7.86961C6.92317 7.86961 7.6469 8.691 7.63269 9.68381C7.63269 10.6838 6.91607 11.498 6.01505 11.498ZM11.9961 11.498C11.1092 11.498 10.3784 10.6838 10.3784 9.68381C10.3784 8.68386 11.095 7.86961 11.9961 7.86961C12.9042 7.86961 13.6279 8.691 13.6138 9.68381C13.6138 10.6838 12.9043 11.498 11.9961 11.498Z" fill="#86959E"/>
</svg>
