<svg width="16" height="16" viewBox="0 0 16 16" fill="none" xmlns="http://www.w3.org/2000/svg">
<g clip-path="url(#clip0_1165_28069)">
<path d="M15.0105 4.01172C14.0973 4.01172 13.2548 3.70922 12.5783 3.19891C11.8023 2.61391 11.2448 1.75578 11.048 0.766719C10.9992 0.522344 10.973 0.270156 10.9705 0.0117188H8.36203V7.13922L8.3589 11.0433C8.3589 12.087 7.67921 12.972 6.73703 13.2833C6.46359 13.3736 6.16827 13.4164 5.86077 13.3995C5.46828 13.378 5.10046 13.2595 4.78077 13.0683C4.10046 12.6614 3.63921 11.9233 3.62671 11.0789C3.60702 9.75922 4.6739 8.68328 5.99265 8.68328C6.25296 8.68328 6.50296 8.72578 6.73703 8.80297V6.85484V6.15453C6.49015 6.11797 6.2389 6.09891 5.98484 6.09891C4.5414 6.09891 3.1914 6.69891 2.2264 7.77984C1.49702 8.59672 1.05952 9.63891 0.992025 10.7317C0.903587 12.1673 1.4289 13.532 2.44765 14.5389C2.59734 14.6867 2.75452 14.8239 2.9189 14.9505C3.79234 15.6227 4.86015 15.987 5.98484 15.987C6.2389 15.987 6.49015 15.9683 6.73703 15.9317C7.78765 15.7761 8.75703 15.2952 9.52203 14.5389C10.462 13.6098 10.9814 12.3764 10.987 11.0636L10.9736 5.23359C11.422 5.57953 11.9123 5.86578 12.4386 6.08797C13.257 6.43328 14.1248 6.60828 15.018 6.60797V4.71391V4.01109C15.0186 4.01172 15.0111 4.01172 15.0105 4.01172Z" fill="#86959E"/>
</g>
<defs>
<clipPath id="clip0_1165_28069">
<rect width="16" height="16" fill="white"/>
</clipPath>
</defs>
</svg>
