<svg width="20" height="20" viewBox="0 0 20 20" fill="none" xmlns="http://www.w3.org/2000/svg">
<path d="M10 6.94336C8.31336 6.94336 6.94336 8.31336 6.94336 10C6.94336 11.6867 8.31336 13.06 10 13.06C11.6867 13.06 13.06 11.6867 13.06 10C13.06 8.31336 11.6867 6.94336 10 6.94336Z" fill="#86959E"/>
<path d="M14.6127 1.66699H5.38602C3.33602 1.66699 1.66602 3.33699 1.66602 5.38699V14.6137C1.66602 16.667 3.33602 18.3337 5.38602 18.3337H14.6127C16.666 18.3337 18.3327 16.667 18.3327 14.6137V5.38699C18.3327 3.33699 16.666 1.66699 14.6127 1.66699ZM9.99935 15.4003C7.02268 15.4003 4.59935 12.977 4.59935 10.0003C4.59935 7.02366 7.02268 4.60366 9.99935 4.60366C12.976 4.60366 15.3994 7.02366 15.3994 10.0003C15.3994 12.977 12.976 15.4003 9.99935 15.4003ZM15.5127 5.58366C14.8827 5.58366 14.3694 5.07366 14.3694 4.44366C14.3694 3.81366 14.8827 3.30033 15.5127 3.30033C16.1427 3.30033 16.656 3.81366 16.656 4.44366C16.656 5.07366 16.1427 5.58366 15.5127 5.58366Z" fill="#86959E"/>
</svg>
