<svg width="32" height="32" viewBox="0 0 32 32" fill="none" xmlns="http://www.w3.org/2000/svg">
<path d="M32 16C32 7.16344 24.8366 0 16 0C7.16344 0 0 7.16344 0 16C0 24.8366 7.16344 32 16 32C24.8366 32 32 24.8366 32 16Z" fill="url(#paint0_linear_1159_29423)"/>
<path d="M24.1892 20.2118L21.8283 18.2495C20.3217 16.7429 17.6363 20.1433 17.6287 20.1508C17.4193 20.3595 15.7364 19.0156 14.3602 17.6401C12.9839 16.2646 11.6408 14.581 11.8494 14.3715C11.8577 14.364 15.2581 11.6793 13.7508 10.1719L11.7922 7.81109C9.67768 5.96853 3.07806 10.9749 11.918 19.8179L12.0521 19.9512L12.1862 20.086C21.0223 28.926 26.0317 22.3279 24.1892 20.2118Z" fill="white"/>
<defs>
<linearGradient id="paint0_linear_1159_29423" x1="1.79135" y1="0.942598" x2="14.7437" y2="36.3746" gradientUnits="userSpaceOnUse">
<stop stop-color="#9ECFE3"/>
<stop offset="1" stop-color="#B7C7FD"/>
</linearGradient>
</defs>
</svg>
