<svg width="18" height="18" viewBox="0 0 18 18" fill="none" xmlns="http://www.w3.org/2000/svg">
<g clip-path="url(#clip0_1159_29432)">
<path d="M12.03 5.625C11.4365 2.86875 10.1709 1.125 9.00033 1.125C7.82977 1.125 6.56414 2.86875 5.9707 5.625H12.03Z" fill="#86959E"/>
<path d="M5.625 9C5.62486 9.75251 5.67504 10.5042 5.77519 11.25H12.2248C12.325 10.5042 12.3751 9.75251 12.375 9C12.3751 8.24749 12.325 7.49581 12.2248 6.75H5.77519C5.67504 7.49581 5.62486 8.24749 5.625 9Z" fill="#86959E"/>
<path d="M5.9707 12.375C6.56414 15.1313 7.82977 16.875 9.00033 16.875C10.1709 16.875 11.4365 15.1313 12.03 12.375H5.9707Z" fill="#86959E"/>
<path d="M13.1815 5.62459H16.7252C16.1928 4.41283 15.3837 3.34272 14.363 2.50009C13.3423 1.65746 12.1383 1.06576 10.8477 0.772461C11.9147 1.71127 12.7517 3.44715 13.1815 5.62459Z" fill="#86959E"/>
<path d="M17.1306 6.75H13.3619C13.4547 7.49641 13.5011 8.24785 13.5008 9C13.5009 9.75216 13.4543 10.5036 13.3613 11.25H17.1301C17.5403 9.77805 17.5409 8.22195 17.1306 6.75Z" fill="#86959E"/>
<path d="M10.8477 17.2271C12.1385 16.934 13.3427 16.3424 14.3637 15.4997C15.3846 14.6571 16.1938 13.5869 16.7263 12.375H13.1826C12.7517 14.5524 11.9147 16.2883 10.8477 17.2271Z" fill="#86959E"/>
<path d="M4.81914 12.375H1.27539C1.80796 13.5869 2.61716 14.6571 3.63808 15.4997C4.65899 16.3424 5.8632 16.934 7.15408 17.2271C6.08589 16.2883 5.24889 14.5524 4.81914 12.375Z" fill="#86959E"/>
<path d="M7.15213 0.772461C5.86124 1.0656 4.65704 1.65723 3.63613 2.49987C2.61521 3.3425 1.80601 4.4127 1.27344 5.62459H4.81719C5.24806 3.44715 6.08506 1.71127 7.15213 0.772461Z" fill="#86959E"/>
<path d="M4.49941 9C4.49934 8.24784 4.54593 7.49639 4.63891 6.75H0.87016C0.459947 8.22195 0.459947 9.77805 0.87016 11.25H4.63891C4.54593 10.5036 4.49934 9.75216 4.49941 9Z" fill="#86959E"/>
</g>
<defs>
<clipPath id="clip0_1159_29432">
<rect width="18" height="18" fill="white"/>
</clipPath>
</defs>
</svg>
