<svg width="20" height="20" viewBox="0 0 20 20" fill="none" xmlns="http://www.w3.org/2000/svg">
<path d="M16.6072 1.35059H6.06092C4.93817 1.35059 4.0248 2.26671 4.0248 3.39284V4.02515H3.38573C2.26298 4.02515 1.34961 4.94127 1.34961 6.06802V16.6082C1.34961 17.7343 2.26298 18.6505 3.38573 18.6505H13.9323C15.0587 18.6505 15.9749 17.7343 15.9749 16.6082V15.9759H16.6072C17.7335 15.9759 18.65 15.0598 18.65 13.933V3.39277C18.65 2.26671 17.7335 1.35059 16.6072 1.35059ZM14.7249 16.6081C14.7249 17.0451 14.3694 17.4004 13.9323 17.4004H3.38573C2.95236 17.4004 2.59961 17.0451 2.59961 16.6081V6.06796C2.59961 5.63096 2.95242 5.27509 3.38573 5.27509H4.6498H13.9323C14.3693 5.27509 14.7249 5.6309 14.7249 6.06796V15.3508V16.6081ZM17.4 13.933C17.4 14.37 17.0445 14.7258 16.6071 14.7258H15.9748V6.06796C15.9748 4.94127 15.0587 4.02509 13.9322 4.02509H5.27473V3.39277C5.27473 2.95577 5.62755 2.60052 6.06086 2.60052H16.6071C17.0444 2.60052 17.4 2.95577 17.4 3.39277V13.933Z" fill="#E3EDF2"/>
</svg>
