<svg width="16" height="16" viewBox="0 0 16 16" fill="none" xmlns="http://www.w3.org/2000/svg">
<path d="M10.8562 12C10.8562 12 10.4863 11.5393 10.1781 11.1321C11.524 10.7357 12.0377 9.85714 12.0377 9.85714C11.6165 10.1465 11.2157 10.35 10.8562 10.4893C10.3425 10.7143 9.84933 10.8643 9.36646 10.95C8.38014 11.1429 7.47603 11.0893 6.7055 10.9393C6.11986 10.8215 5.61644 10.65 5.19521 10.4786C4.9589 10.3822 4.70205 10.2643 4.44521 10.1143C4.41438 10.0929 4.38356 10.0821 4.35274 10.0607C4.33219 10.05 4.32192 10.0393 4.31165 10.0286C4.12671 9.92145 4.02397 9.84644 4.02397 9.84644C4.02397 9.84644 4.51712 10.7036 5.82192 11.1107C5.5137 11.5179 5.13356 12 5.13356 12C2.86301 11.925 2 10.3714 2 10.3714C2 6.92148 3.47945 4.12508 3.47945 4.12508C4.9589 2.96795 6.36646 3.00009 6.36646 3.00009L6.46919 3.12866C4.61986 3.6858 3.76712 4.53222 3.76712 4.53222C3.76712 4.53222 3.99315 4.40364 4.37329 4.22151C5.4726 3.71794 6.34589 3.57866 6.7055 3.54651C6.76713 3.5358 6.81851 3.52508 6.88014 3.52508C7.50684 3.43937 8.21574 3.41794 8.9555 3.50365C9.93149 3.62151 10.9795 3.92151 12.0479 4.53222C12.0479 4.53222 11.2363 3.72865 9.48971 3.17152L9.63354 3.00009C9.63354 3.00009 11.0411 2.96795 12.5205 4.12508C12.5205 4.12508 14 6.92148 14 10.3714C14 10.3714 13.1267 11.925 10.8562 12ZM6.07877 6.99648C5.49315 6.99648 5.03082 7.53218 5.03082 8.18575C5.03082 8.83933 5.50343 9.37501 6.07877 9.37501C6.6644 9.37501 7.1267 8.83933 7.1267 8.18575C7.13699 7.53218 6.6644 6.99648 6.07877 6.99648ZM9.82876 6.99648C9.24316 6.99648 8.78081 7.53218 8.78081 8.18575C8.78081 8.83933 9.25344 9.37501 9.82876 9.37501C10.4144 9.37501 10.8767 8.83933 10.8767 8.18575C10.8767 7.53218 10.4144 6.99648 9.82876 6.99648Z" fill="#86959E"/>
</svg>
