<svg width="25" height="24" viewBox="0 0 25 24" fill="none" xmlns="http://www.w3.org/2000/svg">
<g clip-path="url(#clip0_4545_55622)">
<path d="M20.4141 4.36995C18.8772 3.66809 17.229 3.15096 15.5057 2.85476C15.4743 2.84904 15.4429 2.86334 15.4268 2.89188C15.2148 3.26712 14.98 3.75659 14.8156 4.14134C12.9621 3.86515 11.1181 3.86515 9.3026 4.14134C9.13813 3.74806 8.89482 3.26712 8.68188 2.89188C8.66573 2.86427 8.63436 2.84998 8.60299 2.85476C6.88068 3.14998 5.2325 3.6671 3.69453 4.36995C3.6812 4.37566 3.6698 4.38518 3.66222 4.39756C0.535975 9.04591 -0.320473 13.58 0.0996498 18.0579C0.101534 18.0798 0.113921 18.1008 0.131018 18.1141C2.19362 19.6217 4.19166 20.5369 6.15253 21.1435C6.1839 21.153 6.21715 21.1416 6.23712 21.1159C6.70095 20.4855 7.11443 19.8207 7.46894 19.1217C7.48986 19.0808 7.46989 19.0322 7.42712 19.016C6.77127 18.7684 6.14678 18.4665 5.54603 18.1237C5.49851 18.0961 5.4947 18.0284 5.53845 17.996C5.66487 17.9018 5.79133 17.8037 5.91204 17.7046C5.93389 17.6865 5.96432 17.6827 5.98999 17.6941C9.93651 19.4874 14.2091 19.4874 18.109 17.6941C18.1347 17.6817 18.1651 17.6856 18.1879 17.7036C18.3087 17.8027 18.4351 17.9017 18.5624 17.996C18.6062 18.0284 18.6033 18.096 18.5558 18.1236C17.9551 18.4731 17.3306 18.7684 16.6738 19.015C16.631 19.0312 16.612 19.0807 16.6329 19.1216C16.9951 19.8197 17.4086 20.4844 17.8638 21.1149C17.8829 21.1416 17.9171 21.153 17.9484 21.1435C19.9188 20.5369 21.9168 19.6216 23.9794 18.1141C23.9975 18.1008 24.0089 18.0807 24.0108 18.0589C24.5136 12.8819 23.1686 8.38498 20.4454 4.39849C20.4388 4.38518 20.4274 4.37566 20.4141 4.36995ZM8.05839 15.3313C6.87022 15.3313 5.89118 14.2457 5.89118 12.9124C5.89118 11.5791 6.85119 10.4935 8.05839 10.4935C9.275 10.4935 10.2446 11.5886 10.2256 12.9124C10.2256 14.2457 9.26549 15.3313 8.05839 15.3313ZM16.0712 15.3313C14.8831 15.3313 13.904 14.2457 13.904 12.9124C13.904 11.5791 14.864 10.4935 16.0712 10.4935C17.2879 10.4935 18.2574 11.5886 18.2384 12.9124C18.2384 14.2457 17.2879 15.3313 16.0712 15.3313Z" fill="#5865F2"/>
</g>
<defs>
<clipPath id="clip0_4545_55622">
<rect width="24.1147" height="24" fill="white"/>
</clipPath>
</defs>
</svg>
