<svg width="14" height="14" viewBox="0 0 14 14" fill="none" xmlns="http://www.w3.org/2000/svg">
<path d="M8.77065 7.33085C8.29204 6.8776 7.65793 6.625 6.99877 6.625C6.33961 6.625 5.7055 6.8776 5.2269 7.33085L3.08971 9.3521C1.86471 10.4655 2.74846 12.594 4.40221 12.5108C5.29908 12.4868 6.02752 12.0274 6.99658 12.0449C8.00065 12.0274 8.74658 12.4321 9.64783 12.5108C11.2731 12.548 12.1131 10.4437 10.9056 9.3521L8.77065 7.33085Z" fill="white"/>
<path d="M12.4505 4.85983C11.6149 4.69577 10.9761 5.62545 10.8099 6.42608C10.3111 8.90452 12.713 9.37702 13.2752 6.97295C13.5049 5.94264 13.1418 5.01295 12.4505 4.85983Z" fill="white"/>
<path d="M8.9093 6.19879C9.74055 6.19879 10.4165 5.25379 10.4165 4.09441C10.3334 1.30316 7.48523 1.30316 7.4043 4.09441C7.4043 5.25379 8.08023 6.19879 8.9093 6.19879Z" fill="white"/>
<path d="M3.18907 6.42608C3.02501 5.62545 2.38407 4.69577 1.54845 4.85983C-0.000300467 5.25139 0.655949 8.55233 2.1697 8.56108C3.0272 8.53264 3.42314 7.53733 3.18907 6.42608Z" fill="white"/>
<path d="M5.08922 6.19879C5.91828 6.19879 6.59422 5.25379 6.59422 4.09441C6.51328 1.30316 3.66516 1.30316 3.58203 4.09441C3.58203 5.25379 4.25797 6.19879 5.08922 6.19879Z" fill="white"/>
</svg>
