<svg width="214" height="256" viewBox="0 0 214 256" fill="none" xmlns="http://www.w3.org/2000/svg">
<g clip-path="url(#clip0_2566_97346)">
<g opacity="0.1">
<path d="M107.601 111.031L118.883 336.042H141.727L107.697 110.903L107.633 110.454L118.081 -118.686H95.1846L107.269 111.02L107.601 111.031Z" fill="url(#paint0_radial_2566_97346)"/>
<path d="M105.751 110.689L105.836 110.742L-104.449 336.042H-65.3069L105.965 110.807L106.221 110.946L-31.7264 336.042H-2.09209L106.35 111.02L106.478 111.095L24.7937 336.042H49.7332L106.596 111.159L106.735 111.245L106.596 111.149L106.617 111.053L106.767 111.181L73.3893 336.032H96.2219L106.916 110.999L106.948 111.042L106.916 110.988V110.924L106.97 111.031L106.916 110.892V110.839L106.97 111.042L106.916 110.732V110.539H106.981H106.927L107.013 110.432H106.938L106.991 110.293H106.948L106.97 109.801L106.895 110.315H106.863L106.842 110.165L106.938 109.801L106.831 110.09V110.026L106.938 109.791L106.82 109.983L106.799 109.855L106.852 109.823L106.799 109.844L106.777 109.737L71.9028 -118.686H47.8403L106.628 109.684L106.51 109.769L22.4303 -118.686H-4.92611L106.403 109.855L106.275 109.951L-35.17 -118.686H-69.3815L106.157 110.015L105.868 110.218L-109.389 -118.686H-116.651C-117.795 -117.552 -118.929 -116.408 -120.062 -115.253V-85.7253L105.729 110.283L105.227 110.176L-120.062 -48.5942V-16.2542L104.617 110.047L-120.062 12.6208V39.1751L102.211 109.566L-120.062 63.9435V87.7493L104.532 110.304L104.981 110.443L-120.062 110.892V134.11L104.981 110.646L104.681 110.774L-120.062 157.905V182.855L102.553 111.716L-120.062 209.334V238.381L104.777 110.988L-120.062 270.817V308.215L105.366 110.807L105.751 110.678V110.689Z" fill="url(#paint1_radial_2566_97346)"/>
<path d="M108.082 111.074L108.093 111.117L107.954 111.213L108.103 111.138L165.468 336.042H190.472L108.221 111.063L108.307 111.01L217.379 336.042H247.056L108.424 110.946L108.521 110.892H108.285L108.36 110.828L108.328 110.785L108.242 110.871L108.253 110.892L108.178 110.935L108.157 110.892L108.039 110.903L108.082 111.053L107.932 111.202L108.082 111.074Z" fill="url(#paint2_radial_2566_97346)"/>
<path d="M334.665 237.675V208.714L111.472 111.224L334.665 182.235V157.317L111.74 110.881H110.681L110.274 110.71L111.547 110.839L109.686 110.454L109.472 110.357L109.847 110.143L334.655 86.2949V62.4035L111.782 109.502L334.655 37.5817V10.9204L111.825 109.01L334.655 -18.0936V-50.6047L109.793 109.897L109.258 110.026L334.665 -88.0887V-115.36C333.574 -116.472 332.484 -117.584 331.371 -118.686H321.5L108.959 110.09H108.906L108.681 110.004L281.867 -118.686H247.976L108.563 109.951L108.317 109.844L217.903 -118.686H190.675L108.2 109.78L108.114 109.726L165.351 -118.686H141.374L107.997 109.63V109.694L107.932 109.673L107.986 109.705L107.964 109.844L107.847 109.726L107.954 109.865L107.922 110.069L107.751 109.791L107.783 109.897L107.718 109.801L107.815 110.047H107.772L107.89 110.315L107.676 110.357L107.89 110.336L107.868 110.454L107.922 110.475H107.943V110.603L107.997 110.496V110.443L108.125 110.486L108.05 110.368L108.264 110.304L108.296 110.347L108.21 110.496H108.296L108.36 110.422L108.424 110.507H108.403L108.478 110.571L108.531 110.55L108.488 110.593L108.542 110.657L108.627 110.582L108.585 110.539H108.67L108.884 110.432L108.948 110.496L108.852 110.571L109.045 110.593L109.355 110.625L109.216 110.528L110.371 110.892H110.039L334.633 237.685L334.665 237.675Z" fill="url(#paint3_radial_2566_97346)"/>
<path d="M334.665 109.277L111.921 110.871L334.665 133.628V109.277Z" fill="url(#paint4_radial_2566_97346)"/>
<path d="M320.014 336.042L108.938 110.892H108.734L280.68 336.042H320.014Z" fill="url(#paint5_radial_2566_97346)"/>
<path d="M334.665 270.057L109.772 110.881L109.43 110.892L334.665 307.36V270.057Z" fill="url(#paint6_radial_2566_97346)"/>
</g>
</g>
<defs>
<radialGradient id="paint0_radial_2566_97346" cx="0" cy="0" r="1" gradientUnits="userSpaceOnUse" gradientTransform="translate(107.301 108.678) rotate(90) scale(227.364)">
<stop stop-color="white" stop-opacity="0.31"/>
<stop offset="1" stop-color="white" stop-opacity="0"/>
</radialGradient>
<radialGradient id="paint1_radial_2566_97346" cx="0" cy="0" r="1" gradientUnits="userSpaceOnUse" gradientTransform="translate(107.301 108.678) rotate(90) scale(227.364)">
<stop stop-color="white" stop-opacity="0.31"/>
<stop offset="1" stop-color="white" stop-opacity="0"/>
</radialGradient>
<radialGradient id="paint2_radial_2566_97346" cx="0" cy="0" r="1" gradientUnits="userSpaceOnUse" gradientTransform="translate(107.301 108.678) rotate(90) scale(227.364)">
<stop stop-color="white" stop-opacity="0.31"/>
<stop offset="1" stop-color="white" stop-opacity="0"/>
</radialGradient>
<radialGradient id="paint3_radial_2566_97346" cx="0" cy="0" r="1" gradientUnits="userSpaceOnUse" gradientTransform="translate(107.301 108.678) rotate(90) scale(227.364)">
<stop stop-color="white" stop-opacity="0.31"/>
<stop offset="1" stop-color="white" stop-opacity="0"/>
</radialGradient>
<radialGradient id="paint4_radial_2566_97346" cx="0" cy="0" r="1" gradientUnits="userSpaceOnUse" gradientTransform="translate(107.301 108.678) rotate(90) scale(227.364)">
<stop stop-color="white" stop-opacity="0.31"/>
<stop offset="1" stop-color="white" stop-opacity="0"/>
</radialGradient>
<radialGradient id="paint5_radial_2566_97346" cx="0" cy="0" r="1" gradientUnits="userSpaceOnUse" gradientTransform="translate(107.301 108.678) rotate(90) scale(227.364)">
<stop stop-color="white" stop-opacity="0.31"/>
<stop offset="1" stop-color="white" stop-opacity="0"/>
</radialGradient>
<radialGradient id="paint6_radial_2566_97346" cx="0" cy="0" r="1" gradientUnits="userSpaceOnUse" gradientTransform="translate(107.301 108.678) rotate(90) scale(227.364)">
<stop stop-color="white" stop-opacity="0.31"/>
<stop offset="1" stop-color="white" stop-opacity="0"/>
</radialGradient>
<clipPath id="clip0_2566_97346">
<rect width="214" height="256" fill="white"/>
</clipPath>
</defs>
</svg>
