<svg width="14" height="14" viewBox="0 0 14 14" fill="none" xmlns="http://www.w3.org/2000/svg">
<path d="M13.1647 4.68336C12.8924 4.64381 12.6325 4.54334 12.4044 4.38942C12.1763 4.23551 11.9859 4.03212 11.8473 3.79441C11.7087 3.55669 11.6255 3.29078 11.6039 3.01646C11.5824 2.74214 11.6229 2.46649 11.7227 2.21003C11.7861 2.04237 11.7954 1.85908 11.7494 1.68584C11.7033 1.5126 11.6043 1.35812 11.466 1.24403C10.8556 0.731478 10.1608 0.328828 9.41267 0.0540349C9.2423 -0.00925303 9.0563 -0.0171604 8.88118 0.0314393C8.70605 0.080039 8.55073 0.182667 8.43734 0.324701C8.26667 0.542939 8.04854 0.719448 7.7995 0.84084C7.55047 0.962232 7.27705 1.02532 7 1.02532C6.72296 1.02532 6.44954 0.962232 6.20051 0.84084C5.95147 0.719448 5.73334 0.542939 5.56267 0.324701C5.44928 0.182667 5.29396 0.080039 5.11883 0.0314393C4.94371 -0.0171604 4.75771 -0.00925303 4.58734 0.0540349C3.89652 0.307734 3.25062 0.670069 2.67401 1.12737C2.52866 1.24243 2.42397 1.40101 2.37527 1.57987C2.32656 1.75874 2.3364 1.9485 2.40334 2.12137C2.51103 2.38461 2.55552 2.66942 2.53325 2.95297C2.51098 3.23651 2.42256 3.51088 2.2751 3.75409C2.12764 3.99729 1.92523 4.20254 1.68411 4.35339C1.44299 4.50423 1.16988 4.59647 0.886676 4.6227C0.702813 4.64236 0.53012 4.72053 0.394022 4.84571C0.257923 4.97088 0.165611 5.13645 0.130677 5.31803C0.0437823 5.74816 1.00988e-05 6.18588 1.00988e-05 6.6247C-0.000628578 6.99207 0.0290275 7.35887 0.0886767 7.72136C0.118364 7.90876 0.208958 8.08116 0.346454 8.21191C0.483949 8.34266 0.660688 8.42447 0.849343 8.4447C1.13877 8.47186 1.41747 8.56795 1.66214 8.72493C1.9068 8.88191 2.1103 9.09522 2.25561 9.34699C2.40092 9.59876 2.4838 9.88168 2.49732 10.1721C2.51085 10.4624 2.45462 10.7518 2.33334 11.016C2.25397 11.1879 2.23429 11.3813 2.27741 11.5656C2.32053 11.7499 2.42398 11.9146 2.57134 12.0334C3.17806 12.5366 3.86614 12.9327 4.60601 13.2047C4.70062 13.2375 4.79989 13.2548 4.90001 13.256C5.03729 13.2557 5.17249 13.2225 5.29429 13.1592C5.41609 13.0958 5.52092 13.0042 5.60001 12.892C5.76633 12.6497 5.98929 12.4516 6.24953 12.315C6.50977 12.1784 6.79942 12.1073 7.09334 12.108C7.37812 12.1084 7.65889 12.1752 7.91328 12.3032C8.16768 12.4312 8.38867 12.6169 8.55867 12.8454C8.67175 12.9974 8.83192 13.1077 9.01424 13.1592C9.19656 13.2107 9.39078 13.2004 9.56667 13.13C10.2432 12.8578 10.873 12.4814 11.4333 12.0147C11.5741 11.8983 11.6743 11.7403 11.7196 11.5634C11.7649 11.3864 11.7529 11.1997 11.6853 11.03C11.5756 10.7702 11.5277 10.4884 11.5455 10.2069C11.5634 9.92534 11.6464 9.65182 11.788 9.40789C11.9297 9.16395 12.1261 8.95628 12.3618 8.80128C12.5974 8.64627 12.8659 8.54816 13.146 8.5147C13.3276 8.48958 13.4965 8.4073 13.6283 8.27976C13.76 8.15223 13.8477 7.98607 13.8787 7.80536C13.9536 7.41612 13.9942 7.02105 14 6.6247C14.0001 6.20663 13.961 5.78948 13.8833 5.3787C13.8518 5.20197 13.7654 5.03967 13.6364 4.91484C13.5074 4.79002 13.3423 4.70903 13.1647 4.68336ZM9.33334 6.6247C9.33334 7.08619 9.19649 7.53731 8.9401 7.92103C8.68371 8.30474 8.31929 8.60381 7.89293 8.78041C7.46657 8.95702 6.99742 9.00323 6.54479 8.91319C6.09217 8.82316 5.67641 8.60093 5.35009 8.27461C5.02377 7.94829 4.80154 7.53253 4.71151 7.07991C4.62148 6.62729 4.66768 6.15813 4.84429 5.73177C5.02089 5.30541 5.31996 4.94099 5.70368 4.6846C6.08739 4.42821 6.53852 4.29137 7 4.29137C7.61884 4.29137 8.21233 4.5372 8.64992 4.97478C9.0875 5.41237 9.33334 6.00586 9.33334 6.6247Z" fill="#86959E"/>
</svg>
