<svg width="23" height="22" viewBox="0 0 23 22" fill="none" xmlns="http://www.w3.org/2000/svg">
<g clip-path="url(#clip0_886_23840)">
<path d="M4.89896 13.2951L4.12951 16.1539L1.3172 16.2131C0.476728 14.6616 0 12.8865 0 11.0002C0 9.17614 0.445729 7.45601 1.23581 5.94141H1.23642L3.74017 6.39825L4.83696 8.87514C4.60741 9.5412 4.48229 10.2562 4.48229 11.0002C4.48237 11.8077 4.62934 12.5813 4.89896 13.2951Z" fill="#FBBB00"/>
<path d="M21.9119 8.94531C22.0388 9.61073 22.105 10.2979 22.105 11.0003C22.105 11.7878 22.0218 12.556 21.8633 13.297C21.3253 15.8185 19.9194 18.0203 17.9718 19.5784L17.9712 19.5778L14.8176 19.4177L14.3713 16.6447C15.6636 15.8904 16.6735 14.71 17.2055 13.297H11.2954V8.94531H17.2917H21.9119Z" fill="#518EF8"/>
<path d="M17.9713 19.5776L17.9719 19.5782C16.0778 21.0934 13.6717 22 11.0525 22C6.84342 22 3.18394 19.6586 1.31714 16.2129L4.8989 13.2949C5.83228 15.7741 8.23531 17.539 11.0525 17.539C12.2634 17.539 13.3978 17.2132 14.3713 16.6445L17.9713 19.5776Z" fill="#28B446"/>
<path d="M18.1074 2.53241L14.5268 5.44981C13.5194 4.82307 12.3285 4.46102 11.0526 4.46102C8.17162 4.46102 5.72365 6.30682 4.83703 8.87494L1.23644 5.9412H1.23584C3.07531 2.41154 6.78094 0 11.0526 0C13.7343 0 16.1932 0.950727 18.1074 2.53241Z" fill="#F14336"/>
</g>
<defs>
<clipPath id="clip0_886_23840">
<rect width="22.1051" height="22" fill="white"/>
</clipPath>
</defs>
</svg>
