<svg width="10" height="10" viewBox="0 0 10 10" fill="none" xmlns="http://www.w3.org/2000/svg">
<g clip-path="url(#clip0_987_24972)">
<path d="M0.4 5C0.4 2.4631 2.4631 0.4 5 0.4C7.5369 0.4 9.6 2.4631 9.6 5C9.6 7.5369 7.5369 9.6 5 9.6C2.4631 9.6 0.4 7.5369 0.4 5Z" stroke="#86959E" stroke-width="0.8"/>
<path d="M5.35 3.00024C5.35 2.80694 5.1933 2.65024 5 2.65024C4.8067 2.65024 4.65 2.80694 4.65 3.00024L5.35 3.00024ZM4.75251 7.24773C4.8892 7.38442 5.1108 7.38442 5.24749 7.24773L7.47487 5.02035C7.61156 4.88366 7.61156 4.66205 7.47487 4.52537C7.33819 4.38869 7.11658 4.38869 6.9799 4.52537L5 6.50527L3.0201 4.52537C2.88342 4.38869 2.66181 4.38869 2.52513 4.52537C2.38844 4.66205 2.38844 4.88366 2.52513 5.02035L4.75251 7.24773ZM4.65 3.00024L4.65 7.00024L5.35 7.00024L5.35 3.00024L4.65 3.00024Z" fill="#86959E"/>
</g>
<defs>
<clipPath id="clip0_987_24972">
<rect width="10" height="10" fill="white"/>
</clipPath>
</defs>
</svg>
