<svg width="10" height="10" viewBox="0 0 10 10" fill="none" xmlns="http://www.w3.org/2000/svg">
<g clip-path="url(#clip0_987_24931)">
<path fillRule="evenodd" clipRule="evenodd" d="M5 0C2.24219 0 0 2.24219 0 5C0 7.75781 2.24219 10 5 10C7.75781 10 10 7.75781 10 5C10 2.24219 7.75781 0 5 0Z" fill="#3AC080"/>
<path fillRule="evenodd" clipRule="evenodd" d="M7.41797 3.31445C7.53906 3.43555 7.53906 3.63477 7.41797 3.75586L4.48828 6.68555C4.42773 6.74609 4.34766 6.77734 4.26758 6.77734C4.1875 6.77734 4.10742 6.74609 4.04688 6.68555L2.58203 5.2207C2.46094 5.09961 2.46094 4.90039 2.58203 4.7793C2.70312 4.6582 2.90234 4.6582 3.02344 4.7793L4.26758 6.02344L6.97656 3.31445C7.09766 3.19141 7.29687 3.19141 7.41797 3.31445Z" fill="white"/>
</g>
<defs>
<clipPath id="clip0_987_24931">
<rect width="10" height="10" fill="white"/>
</clipPath>
</defs>
</svg>
