<svg width="10" height="10" viewBox="0 0 10 10" fill="none" xmlns="http://www.w3.org/2000/svg">
<path d="M0.4 5C0.4 2.4631 2.4631 0.4 5 0.4C7.5369 0.4 9.6 2.4631 9.6 5C9.6 7.5369 7.5369 9.6 5 9.6C2.4631 9.6 0.4 7.5369 0.4 5Z" stroke="#86959E" stroke-width="0.8"/>
<path d="M3 4.65C2.8067 4.65 2.65 4.8067 2.65 5C2.65 5.1933 2.8067 5.35 3 5.35L3 4.65ZM7.24749 5.24749C7.38417 5.1108 7.38417 4.8892 7.24749 4.75251L5.0201 2.52513C4.88342 2.38844 4.66181 2.38844 4.52513 2.52513C4.38844 2.66181 4.38844 2.88342 4.52513 3.0201L6.50503 5L4.52513 6.9799C4.38844 7.11658 4.38844 7.33819 4.52513 7.47487C4.66181 7.61156 4.88342 7.61156 5.0201 7.47487L7.24749 5.24749ZM3 5.35L7 5.35L7 4.65L3 4.65L3 5.35Z" fill="#86959E"/>
</svg>
