<svg width="23" height="22" viewBox="0 0 23 22" fill="none" xmlns="http://www.w3.org/2000/svg">
<path d="M13.9779 20.0381C13.7964 20.0834 13.6115 20.1235 13.4279 20.1573C12.948 20.2466 12.6307 20.7081 12.7195 21.1885C12.7633 21.4248 12.8975 21.6216 13.0797 21.7501C13.2675 21.8823 13.5066 21.942 13.7501 21.8967C13.9687 21.8561 14.1891 21.8084 14.4053 21.7544C14.8792 21.6365 15.1679 21.1564 15.0497 20.6827C14.9317 20.2086 14.452 19.9201 13.9779 20.0381Z" fill="#F4BE32"/>
<path d="M20.5181 8.18372C20.5801 8.37043 20.6984 8.52285 20.8478 8.62817C21.0693 8.78419 21.3591 8.83668 21.6357 8.74522C22.0995 8.59124 22.3507 8.09118 22.1973 7.62767C22.1274 7.41637 22.0499 7.20441 21.9672 6.99803C21.7858 6.54451 21.2714 6.3237 20.8176 6.50511C20.3644 6.68643 20.1435 7.20101 20.325 7.65468C20.3944 7.82814 20.4595 8.00619 20.5181 8.18372Z" fill="#F4BE32"/>
<path d="M16.8518 18.7753C16.6958 18.8783 16.5348 18.978 16.3726 19.0714C15.9493 19.3156 15.8044 19.8565 16.0484 20.2795C16.1147 20.3946 16.2029 20.4887 16.3045 20.5606C16.5774 20.7525 16.9479 20.7813 17.2564 20.6035C17.4492 20.4923 17.641 20.374 17.8268 20.2511C18.2342 19.982 18.3463 19.4333 18.077 19.0257C17.8078 18.618 17.2593 18.506 16.8518 18.7753Z" fill="#F4BE32"/>
<path d="M22.7471 10.6539C22.7279 10.1658 22.3167 9.78583 21.8284 9.80489C21.3408 9.82413 20.9605 10.2354 20.9797 10.7234C20.987 10.9099 20.9889 11.0993 20.9846 11.2857C20.9778 11.5918 21.1275 11.8647 21.3602 12.0287C21.4988 12.1263 21.667 12.1854 21.8494 12.1895C22.3375 12.2003 22.7421 11.8132 22.7529 11.3248C22.7578 11.1021 22.7559 10.8765 22.7471 10.6539Z" fill="#F4BE32"/>
<path d="M20.3738 16.4487C19.9824 16.155 19.4286 16.2348 19.1354 16.6255C19.0232 16.7751 18.9049 16.9229 18.7839 17.0652C18.4675 17.4369 18.5122 17.9952 18.8839 18.3119C18.9051 18.3298 18.9265 18.3463 18.9487 18.3618C19.3183 18.6224 19.8318 18.5625 20.1306 18.2119C20.2752 18.0421 20.4161 17.8656 20.5503 17.6868C20.8435 17.2961 20.7642 16.742 20.3738 16.4487Z" fill="#F4BE32"/>
<path d="M21.6738 13.2517C21.2077 13.1055 20.7114 13.365 20.5654 13.831C20.5095 14.0091 20.4475 14.188 20.3806 14.3632C20.2338 14.7489 20.3745 15.1733 20.697 15.4007C20.7562 15.4423 20.8214 15.4775 20.8922 15.5043C21.3485 15.6784 21.8595 15.4495 22.0334 14.993C22.1128 14.7847 22.1865 14.5718 22.2531 14.3601C22.399 13.894 22.1398 13.3978 21.6738 13.2517Z" fill="#F4BE32"/>
<path d="M10.1193 20.1652C9.32855 20.0232 8.57004 19.7815 7.85079 19.4443C7.84227 19.4398 7.83466 19.4348 7.82572 19.4307C7.65623 19.3509 7.48702 19.2655 7.32301 19.1762C7.32245 19.1755 7.3214 19.1751 7.32051 19.1747C7.01959 19.009 6.72591 18.8257 6.4406 18.6248C2.28027 15.6942 1.27997 9.92518 4.21081 5.7649C4.84811 4.86059 5.61934 4.10615 6.47914 3.5082C6.48974 3.50082 6.50033 3.49349 6.51083 3.48607C9.54065 1.39843 13.6547 1.25774 16.8719 3.40298L16.1809 4.40135C15.9888 4.67923 16.107 4.88173 16.4433 4.85147L19.4447 4.58276C19.7814 4.55249 19.9828 4.26122 19.8922 3.93605L19.0863 1.03206C18.996 0.70651 18.765 0.667541 18.5727 0.945379L17.8801 1.94611C15.5191 0.361234 12.6874 -0.243104 9.87671 0.244283C9.59362 0.293277 9.3145 0.353242 9.03922 0.423044C9.03709 0.423423 9.03539 0.423659 9.03369 0.424037C9.02305 0.426639 9.01227 0.430091 9.00191 0.432976C6.57822 1.05538 4.46358 2.46897 2.95465 4.48586C2.94193 4.50094 2.92883 4.5157 2.91682 4.53211C2.86664 4.59969 2.81684 4.66883 2.76809 4.73797C2.68835 4.85128 2.60975 4.96743 2.53456 5.08357C2.52515 5.09757 2.51796 5.11181 2.50973 5.12595C1.26455 7.05549 0.663946 9.28623 0.766947 11.5573C0.767184 11.5647 0.766758 11.5722 0.766947 11.5799C0.776926 11.8018 0.794518 12.0267 0.8184 12.2481C0.819677 12.2624 0.822846 12.2759 0.825258 12.2902C0.849944 12.5128 0.88092 12.736 0.919746 12.9591C1.31435 15.2356 2.38824 17.2842 3.99743 18.8781C4.00116 18.8819 4.00504 18.8859 4.00883 18.8898C4.01015 18.8913 4.01162 18.892 4.01289 18.8934C4.44523 19.3198 4.9155 19.7142 5.42185 20.0709C6.74696 21.0046 8.2225 21.6218 9.80714 21.9061C10.288 21.9925 10.7472 21.6725 10.8335 21.1919C10.9197 20.711 10.5999 20.2513 10.1193 20.1652Z" fill="#F4BE32"/>
<path d="M11.2129 3.93457C10.8174 3.93457 10.4971 4.25521 10.4971 4.65014V11.7792L17.0171 15.1497C17.1221 15.204 17.2345 15.2296 17.345 15.2296C17.604 15.2296 17.8541 15.0886 17.9813 14.8425C18.1626 14.4914 18.0254 14.0599 17.6742 13.8786L11.928 10.9078V4.65014C11.9279 4.25521 11.6079 3.93457 11.2129 3.93457Z" fill="#F4BE32"/>
</svg>
