<svg width="24" height="24" viewBox="0 0 24 24" fill="none" xmlns="http://www.w3.org/2000/svg">
<path d="M9.4663 18.8154C11.5556 18.8155 13.5851 18.1236 15.2334 16.8492L21.4519 23.0217C21.9165 23.467 22.6567 23.4542 23.1053 22.9931C23.543 22.5433 23.543 21.8302 23.1053 21.3805L16.8868 15.2081C20.0726 11.1376 19.3307 5.27435 15.2298 2.11222C11.1289 -1.04991 5.22202 -0.313557 2.03629 3.75696C-1.14943 7.82747 -0.407587 13.6907 3.6933 16.8528C5.34429 18.1259 7.37564 18.8165 9.4663 18.8154ZM4.46979 4.52412C7.22931 1.78499 11.7034 1.78494 14.463 4.52402C17.2225 7.2631 17.2226 11.704 14.4631 14.4432C11.7035 17.1823 7.22947 17.1823 4.46989 14.4433C4.46984 14.4432 4.46984 14.4432 4.46979 14.4432C1.71027 11.724 1.69401 7.2993 4.43343 4.56022C4.44553 4.54815 4.45764 4.53614 4.46979 4.52412Z" fill="#91B6CA"/>
</svg>
