<svg width="20" height="21" viewBox="0 0 20 21" fill="none" xmlns="http://www.w3.org/2000/svg">
<path d="M10 0.5C4.48625 0.5 0 4.98625 0 10.5C0 16.0138 4.48625 20.5 10 20.5C15.5138 20.5 20 16.0138 20 10.5C20 4.98625 15.5138 0.5 10 0.5ZM5 8C5 7.31125 5.56125 6.75 6.25 6.75C6.93875 6.75 7.5 7.31125 7.5 8C7.5 8.68875 6.93875 9.25 6.25 9.25C5.56125 9.25 5 8.68875 5 8ZM14.4187 15.715C14.2962 15.8375 14.1362 15.8975 13.9762 15.8975C13.8162 15.8975 13.6562 15.8363 13.5337 15.715C11.6437 13.825 8.35125 13.825 6.4625 15.715C6.21875 15.9587 5.8225 15.9587 5.57875 15.715C5.335 15.4712 5.335 15.075 5.57875 14.8313C6.76125 13.6512 8.33 13 10 13C11.67 13 13.2387 13.6512 14.4187 14.8313C14.6625 15.075 14.6625 15.4712 14.4187 15.715ZM13.75 9.25C13.0612 9.25 12.5 8.68875 12.5 8C12.5 7.31125 13.0612 6.75 13.75 6.75C14.4388 6.75 15 7.31125 15 8C15 8.68875 14.4388 9.25 13.75 9.25Z" fill="#3AC080"/>
</svg>
