<svg width="21" height="17" viewBox="0 0 21 17" fill="none" xmlns="http://www.w3.org/2000/svg">
<path d="M20.5111 15.0686L11.7991 0.727622C11.5789 0.365178 11.1836 0.143555 10.7572 0.143555C10.3308 0.143555 9.93544 0.36514 9.71527 0.727622L1.00337 15.0686C0.776796 15.4416 0.770087 15.9069 0.985879 16.2861C1.20167 16.6654 1.60646 16.8999 2.04525 16.8999H19.4692C19.908 16.8999 20.3127 16.6653 20.5285 16.2861C20.7443 15.9068 20.7377 15.4416 20.5111 15.0686ZM10.7637 5.10427C11.2641 5.10427 11.6874 5.38445 11.6874 5.88105C11.6874 7.39639 11.5078 9.57397 11.5078 11.0893C11.5078 11.4841 11.0716 11.6496 10.7637 11.6496C10.3532 11.6496 10.0068 11.484 10.0068 11.0893C10.0068 9.57397 9.82724 7.39639 9.82724 5.88105C9.82724 5.38445 10.2377 5.10427 10.7637 5.10427ZM10.7765 14.4893C10.2121 14.4893 9.78868 14.0309 9.78868 13.5088C9.78868 12.974 10.212 12.5283 10.7765 12.5283C11.3025 12.5283 11.7516 12.974 11.7516 13.5088C11.7516 14.0309 11.3025 14.4893 10.7765 14.4893Z" fill="#FF5C5C"/>
</svg>
