<svg width="22" height="22" viewBox="0 0 22 22" fill="none" xmlns="http://www.w3.org/2000/svg">
<path d="M20.6803 2.459H9.72607C9.28066 1.21894 8.09782 0.32373 6.6975 0.32373C5.2833 0.32373 4.09196 1.23709 3.65721 2.49636C3.59439 2.48505 3.53685 2.459 3.4707 2.459H1.3195C0.725013 2.459 0.243896 2.93708 0.243896 3.52663C0.243896 4.11618 0.725013 4.59426 1.3195 4.59426H3.4707C3.53685 4.59426 3.59439 4.56821 3.65721 4.55689C4.09196 5.81617 5.2833 6.72953 6.6975 6.72953C8.09782 6.72953 9.28066 5.83432 9.72607 4.59426H20.6803C21.2748 4.59426 21.7559 4.11618 21.7559 3.52663C21.7559 2.93708 21.2748 2.459 20.6803 2.459ZM6.6975 4.59426C6.10398 4.59426 5.6219 4.11521 5.6219 3.52663C5.6219 2.93804 6.10398 2.459 6.6975 2.459C7.29101 2.459 7.7731 2.93804 7.7731 3.52663C7.7731 4.11521 7.29101 4.59426 6.6975 4.59426Z" fill="#91B6CA"/>
<path d="M20.6803 17.4058H9.72607C9.28066 16.1657 8.09782 15.2705 6.6975 15.2705C5.2833 15.2705 4.09196 16.1839 3.65721 17.4431C3.59439 17.4318 3.53685 17.4058 3.4707 17.4058H1.3195C0.725013 17.4058 0.243896 17.8839 0.243896 18.4734C0.243896 19.063 0.725013 19.541 1.3195 19.541H3.4707C3.53685 19.541 3.59439 19.515 3.65721 19.5037C4.09196 20.7629 5.2833 21.6763 6.6975 21.6763C8.09782 21.6763 9.28066 20.7811 9.72607 19.541H20.6803C21.2748 19.541 21.7559 19.063 21.7559 18.4734C21.7559 17.8839 21.2748 17.4058 20.6803 17.4058ZM6.6975 19.541C6.10398 19.541 5.6219 19.062 5.6219 18.4734C5.6219 17.8848 6.10398 17.4058 6.6975 17.4058C7.29101 17.4058 7.7731 17.8848 7.7731 18.4734C7.7731 19.062 7.29101 19.541 6.6975 19.541Z" fill="#91B6CA"/>
<path d="M20.6803 9.93238H18.5291C18.463 9.93238 18.4055 9.95843 18.3427 9.96975C17.9078 8.71048 16.7165 7.79712 15.3023 7.79712C13.902 7.79712 12.7191 8.69233 12.2737 9.93238H1.3195C0.725013 9.93238 0.243896 10.4105 0.243896 11C0.243896 11.5896 0.725013 12.0677 1.3195 12.0677H12.2737C12.7191 13.3077 13.9019 14.2029 15.3023 14.2029C16.7165 14.2029 17.9078 13.2896 18.3427 12.0303C18.4055 12.0416 18.463 12.0677 18.5291 12.0677H20.6803C21.2748 12.0677 21.7559 11.5896 21.7559 11C21.7559 10.4105 21.2748 9.93238 20.6803 9.93238ZM15.3023 12.0677C14.7088 12.0677 14.2267 11.5886 14.2267 11C14.2267 10.4114 14.7088 9.93238 15.3023 9.93238C15.8958 9.93238 16.3779 10.4114 16.3779 11C16.3779 11.5886 15.8958 12.0677 15.3023 12.0677Z" fill="#91B6CA"/>
</svg>
