<svg width="165" height="22" viewBox="0 0 165 22" fill="none" xmlns="http://www.w3.org/2000/svg">
<path d="M5.88281 3.42188H20.5312L18.5781 7.32812H5.88281C5.23177 7.32812 4.90625 7.65365 4.90625 8.30469V9.28125C4.90625 9.93229 5.23177 10.2578 5.88281 10.2578H14.6719C17.9271 10.2578 19.5547 11.8854 19.5547 15.1406V16.1172C19.5547 19.3724 17.9271 21 14.6719 21H0.0234375L1.97656 17.0938H14.6719C15.3229 17.0938 15.6484 16.7682 15.6484 16.1172V15.1406C15.6484 14.4896 15.3229 14.1641 14.6719 14.1641H5.88281C2.6276 14.1641 1 12.5365 1 9.28125V8.30469C1 5.04948 2.6276 3.42188 5.88281 3.42188ZM41.6391 3.42188L39.6859 7.32812H33.3383V21H29.432V7.32812H22.1078V3.42188H41.6391ZM44.9148 17.0938H51.5945L48.2547 9.92578L44.9148 17.0938ZM46.7898 21L44.8758 17.1719L43.0887 21H38.7723L48.2547 0.667969L57.7371 21H46.7898ZM63.9914 10.2578V21.9766L60.0852 20.0234V3.42188H73.757C77.0122 3.42188 78.6398 5.04948 78.6398 8.30469V9.28125C78.6398 11.8659 77.6145 13.4251 75.5637 13.959L79.6164 21H75.1145L71.1789 14.1641H65.9445L63.9914 10.2578ZM63.9914 10.2578H73.757C74.4081 10.2578 74.7336 9.93229 74.7336 9.28125V8.30469C74.7336 7.65365 74.4081 7.32812 73.757 7.32812H63.9914V10.2578ZM94.8648 3.42188C98.1201 3.42188 99.7477 5.04948 99.7477 8.30469V9.28125C99.7477 12.5365 98.1201 14.1641 94.8648 14.1641H85.0992V21.9766L81.193 20.0234V3.42188H94.8648ZM94.8648 7.32812H85.0992V10.2578H94.8648C95.5159 10.2578 95.8414 9.93229 95.8414 9.28125V8.30469C95.8414 7.65365 95.5159 7.32812 94.8648 7.32812ZM121.832 3.42188L119.879 7.32812H106.207V10.2578H119.879L117.926 14.1641H106.207V17.0938H120.855V21H102.301V3.42188H121.832ZM142.94 3.42188L140.987 7.32812H134.639V21H130.733V7.32812H123.409V3.42188H142.94ZM149.399 3.42188H164.048L162.095 7.32812H149.399C148.748 7.32812 148.423 7.65365 148.423 8.30469V9.28125C148.423 9.93229 148.748 10.2578 149.399 10.2578H158.188C161.443 10.2578 163.071 11.8854 163.071 15.1406V16.1172C163.071 19.3724 161.443 21 158.188 21H143.54L145.493 17.0938H158.188C158.839 17.0938 159.165 16.7682 159.165 16.1172V15.1406C159.165 14.4896 158.839 14.1641 158.188 14.1641H149.399C146.144 14.1641 144.516 12.5365 144.516 9.28125V8.30469C144.516 5.04948 146.144 3.42188 149.399 3.42188Z" fill="#2F2F2F"/>
</svg>
