<svg width="20" height="20" viewBox="0 0 20 20" fill="none" xmlns="http://www.w3.org/2000/svg">
<path fill-rule="evenodd" clip-rule="evenodd" d="M1.00307 8.60944C1.0046 9.07495 1.00613 9.54039 1.00613 10.0058L1.00342 10.0028C1.00342 10.3753 1.00321 10.7477 1.003 11.1202C1.00241 12.191 1.00181 13.2619 1.00613 14.3328C1.0018 14.595 1.02313 14.857 1.06986 15.1153C1.41802 16.8246 2.90778 17.999 4.71113 17.999C5.05658 17.999 5.40199 17.9993 5.74739 17.9995C6.7144 18.0002 7.68125 18.0009 8.64814 17.996C8.90622 17.9948 9.16377 17.9721 9.41785 17.9279C10.9441 17.6601 12.1783 16.4016 12.3282 14.9087C12.3757 14.4364 12.3728 13.9594 12.3699 13.4826C12.3687 13.2964 12.3676 13.1102 12.3694 12.9244C12.3745 12.3996 12.153 12.1899 11.6063 12.1899C11.1602 12.1899 10.7141 12.1906 10.268 12.1912C9.37595 12.1924 8.48386 12.1937 7.59197 12.1899C6.16943 12.1836 5.09776 10.9292 5.35654 9.5835C5.45533 9.07512 5.7353 8.61634 6.14777 8.28688C6.56024 7.95742 7.07911 7.77817 7.61412 7.78029C8.06656 7.78029 8.51896 7.7805 8.97145 7.78071C9.87643 7.78113 10.7815 7.78155 11.6863 7.78029C12.1312 7.77954 12.3702 7.54737 12.3702 7.11986V5.54541C12.3663 3.60732 10.7487 2.02348 8.74177 2.00733C7.36467 1.99756 5.98784 1.99756 4.61127 2.00733C2.66221 2.02123 1.03605 3.56825 1.01041 5.45112C0.996126 6.50357 0.999601 7.55654 1.00307 8.60944ZM7.51389 10.6019H15.8681C15.8001 10.6709 15.7596 10.7145 15.722 10.7548C15.716 10.7613 15.7101 10.7677 15.7041 10.7741C15.5583 10.9149 15.4122 11.0553 15.2662 11.1958C15.0272 11.4256 14.7884 11.6553 14.5508 11.8864C14.2827 12.1464 14.2688 12.5194 14.512 12.7572C14.7618 13.0018 15.1372 13.0018 15.4127 12.7388C16.2176 11.9705 17.0186 11.1981 17.816 10.4217C17.8741 10.3685 17.9204 10.3044 17.9521 10.2334C17.9837 10.1624 18 10.0858 18 10.0084C18 9.93104 17.9837 9.85449 17.9521 9.78342C17.9204 9.71243 17.8741 9.64835 17.816 9.59521C17.0075 8.8123 16.1976 8.03087 15.3863 7.25097C15.3216 7.18452 15.2409 7.13451 15.1514 7.10534C15.062 7.07619 14.9664 7.06879 14.8733 7.0838C14.6305 7.12061 14.4518 7.24684 14.3741 7.47525C14.2909 7.71681 14.3472 7.93394 14.5322 8.11389C14.7702 8.34519 15.0096 8.57533 15.2488 8.80548C15.4037 8.95445 15.5586 9.10333 15.7131 9.25255C15.74 9.27841 15.7651 9.30603 15.7977 9.34207C15.8164 9.3627 15.8376 9.38603 15.8631 9.41331H7.57606C7.49206 9.41112 7.408 9.41331 7.32427 9.42013C7.23753 9.43041 7.15412 9.4587 7.07974 9.503C7.00537 9.54738 6.94179 9.60674 6.89337 9.67706C6.84495 9.74738 6.81283 9.82704 6.79921 9.91049C6.78559 9.99395 6.79079 10.0793 6.81447 10.1606C6.90306 10.4574 7.12881 10.6019 7.51389 10.6019Z" fill="#86959E"/>
</svg>
