<svg width="120" height="166" viewBox="0 0 120 166" fill="none" xmlns="http://www.w3.org/2000/svg">
<g clip-path="url(#clip0_1788_42617)">
<mask id="mask0_1788_42617" style="mask-type:luminance" maskUnits="userSpaceOnUse" x="0" y="0" width="120" height="166">
<path d="M120 0H0V166H120V0Z" fill="white"/>
</mask>
<g mask="url(#mask0_1788_42617)">
<path d="M29.2847 16.8684C32.6613 16.328 35.4964 14.1296 37.5253 11.377C42.6127 4.47533 50.7852 0 60 0C69.2148 0 77.3873 4.47533 82.4747 11.377C84.5036 14.1296 87.3387 16.328 90.7153 16.8684C96.0377 17.7201 100.666 18.7199 104.574 19.7193C110.12 21.1375 112.893 21.8466 115.683 24.6051C116.452 25.3651 117.48 26.6918 118.024 27.6268C120 31.0205 120 34.4257 120 41.2362V137.987C120 149.659 120 155.494 117.036 159.585C116.079 160.906 114.921 162.068 113.604 163.028C109.525 166 98.1945 166 86.5574 166H79.6721C73.7705 166 80.2362 166 74.7541 166H60.4918H44.7541C39.2721 166 40.3279 166 33.4426 166C21.8055 166 10.4754 166 6.39644 163.028C5.07911 162.068 3.92062 160.906 2.96353 159.585C0 155.494 0 149.659 0 137.987V41.2361C0 34.4257 0 31.0205 1.9756 27.6268C2.51991 26.6918 3.54781 25.3651 4.31671 24.6051C7.10748 21.8466 9.88033 21.1375 15.426 19.7193C19.3342 18.7199 23.9623 17.7201 29.2847 16.8684Z" fill="url(#paint0_radial_1788_42617)"/>
<mask id="mask1_1788_42617" style="mask-type:luminance" maskUnits="userSpaceOnUse" x="3" y="3" width="114" height="160">
<path d="M117 3H3V163H117V3Z" fill="white"/>
</mask>
<g mask="url(#mask1_1788_42617)">
<path d="M30.5268 19.3066C33.9142 18.7501 36.75 16.5292 38.7925 13.7702C43.6348 7.22915 51.3321 3 60 3C68.6679 3 76.3652 7.22915 81.2075 13.7702C83.25 16.5292 86.0858 18.7501 89.4732 19.3066C94.4062 20.117 98.7046 21.0619 102.345 22.0066C107.614 23.3735 110.248 24.057 112.899 26.7157C113.63 27.4483 114.606 28.7271 115.123 29.6283C117 32.8993 117 36.1814 117 42.7457V136C117 147.249 117 152.874 114.185 156.817C113.275 158.09 112.175 159.21 110.923 160.135C107.605 162.588 102.354 162.941 93.9721 162.992C91.312 163.008 88.9663 161.248 88.2141 158.697L86.1075 151.552C84.611 146.476 80.0197 143 74.8118 143H45.1882C39.9803 143 35.389 146.476 33.8925 151.552L31.786 158.697C31.0337 161.248 28.688 163.008 26.0279 162.992C17.6456 162.941 12.3949 162.588 9.07662 160.135C7.82515 159.21 6.72459 158.09 5.81535 156.817C3 152.874 3 147.249 3 136V42.7457C3 36.1814 3 32.8993 4.87682 29.6283C5.39391 28.7271 6.37042 27.4483 7.10088 26.7157C9.7521 24.057 12.3863 23.3735 17.6547 22.0066C21.2954 21.0619 25.5938 20.117 30.5268 19.3066Z" fill="white"/>
</g>
<mask id="mask2_1788_42617" style="mask-type:luminance" maskUnits="userSpaceOnUse" x="1" y="1" width="118" height="82">
<path d="M119 1H1V83H119V1Z" fill="white"/>
</mask>
<g mask="url(#mask2_1788_42617)">
<mask id="mask3_1788_42617" style="mask-type:alpha" maskUnits="userSpaceOnUse" x="3" y="3" width="114" height="160">
<path d="M30.5268 19.3066C33.9142 18.7501 36.75 16.5292 38.7925 13.7702C43.6348 7.22915 51.3321 3 60 3C68.6679 3 76.3652 7.22915 81.2075 13.7702C83.25 16.5292 86.0858 18.7501 89.4732 19.3066C94.4062 20.117 98.7046 21.0619 102.345 22.0066C107.614 23.3735 110.248 24.057 112.899 26.7157C113.63 27.4483 114.606 28.7271 115.123 29.6283C117 32.8993 117 36.1814 117 42.7457V136C117 147.249 117 152.874 114.185 156.817C113.275 158.09 112.175 159.21 110.923 160.135C107.605 162.588 102.354 162.941 93.9721 162.992C91.312 163.008 88.9663 161.248 88.2141 158.697L86.1075 151.552C84.611 146.476 80.0197 143 74.8118 143H45.1882C39.9803 143 35.389 146.476 33.8925 151.552L31.786 158.697C31.0337 161.248 28.688 163.008 26.0279 162.992C17.6456 162.941 12.3949 162.588 9.07662 160.135C7.82515 159.21 6.72459 158.09 5.81535 156.817C3 152.874 3 147.249 3 136V42.7457C3 36.1814 3 32.8993 4.87682 29.6283C5.39391 28.7271 6.37042 27.4483 7.10088 26.7157C9.7521 24.057 12.3863 23.3735 17.6547 22.0066C21.2954 21.0619 25.5938 20.117 30.5268 19.3066Z" fill="white"/>
</mask>
<g mask="url(#mask3_1788_42617)">
<path opacity="0.5" d="M22.927 66.7091C21.8017 62.6231 18.361 59.5705 14.1365 58.91L1.51758 56.937V-10.7876H40.825H79.6667H118.482V56.937L105.864 58.91C101.639 59.5705 98.1984 62.6231 97.073 66.7091L95.9518 70.7802C94.0482 77.6922 87.7083 82.4874 80.4733 82.4874H39.5267C32.2918 82.4874 25.9519 77.6922 24.0482 70.7802L22.927 66.7091Z" fill="#EEF5F9" stroke="#E3EDF2"/>
</g>
</g>
</g>
</g>
<defs>
<radialGradient id="paint0_radial_1788_42617" cx="0" cy="0" r="1" gradientUnits="userSpaceOnUse" gradientTransform="translate(60 -37.0031) rotate(90) scale(193.238 205.091)">
<stop stop-color="#AEFFEC"/>
<stop offset="0.659574" stop-color="#5FB1F3"/>
<stop offset="1" stop-color="#3197EA"/>
</radialGradient>
<clipPath id="clip0_1788_42617">
<rect width="120" height="166" fill="white"/>
</clipPath>
</defs>
</svg>
