<svg width="10" height="11" viewBox="0 0 10 11" fill="none" xmlns="http://www.w3.org/2000/svg">
<path fillRule="evenodd" clipRule="evenodd" d="M5 0.5C2.24219 0.5 0 2.74219 0 5.5C0 8.25781 2.24219 10.5 5 10.5C7.75781 10.5 10 8.25781 10 5.5C10 2.74219 7.75781 0.5 5 0.5Z" fill="#3AC080"/>
<path fillRule="evenodd" clipRule="evenodd" d="M7.41797 3.81445C7.53906 3.93555 7.53906 4.13477 7.41797 4.25586L4.48828 7.18555C4.42773 7.24609 4.34766 7.27734 4.26758 7.27734C4.1875 7.27734 4.10742 7.24609 4.04688 7.18555L2.58203 5.7207C2.46094 5.59961 2.46094 5.40039 2.58203 5.2793C2.70312 5.1582 2.90234 5.1582 3.02344 5.2793L4.26758 6.52344L6.97656 3.81445C7.09766 3.69141 7.29687 3.69141 7.41797 3.81445Z" fill="white"/>
</svg>
