<svg width="44" height="44" viewBox="0 0 44 44" fill="none" xmlns="http://www.w3.org/2000/svg">
<path d="M22 30C17.5888 30 14 26.4112 14 22C14 17.5888 17.5888 14 22 14C26.4112 14 30 17.5888 30 22C30 26.4112 26.4112 30 22 30Z" fill="#FFC8C5"/>
<path d="M22 28C18.6916 28 16 25.3084 16 22C16 18.6916 18.6916 16 22 16C25.3084 16 28 18.6916 28 22C28 25.3084 25.3084 28 22 28Z" fill="#FF5C5C"/>
<g filter="url(#filter0_f_1116_41387)">
<path d="M22 28C18.6916 28 16 25.3084 16 22C16 18.6916 18.6916 16 22 16C25.3084 16 28 18.6916 28 22C28 25.3084 25.3084 28 22 28Z" fill="#E8564C" fill-opacity="0.45"/>
</g>
<path d="M21.6196 19.1708C21.7393 18.8023 22.2607 18.8023 22.3804 19.1708L22.8083 20.4875C22.8618 20.6523 23.0154 20.7639 23.1887 20.7639H24.5732C24.9606 20.7639 25.1218 21.2598 24.8083 21.4875L23.6882 22.3013C23.548 22.4032 23.4893 22.5837 23.5429 22.7485L23.9707 24.0652C24.0905 24.4338 23.6687 24.7402 23.3552 24.5125L22.2351 23.6987C22.0949 23.5968 21.9051 23.5968 21.7649 23.6987L20.6448 24.5125C20.3313 24.7402 19.9095 24.4338 20.0293 24.0652L20.4571 22.7485C20.5107 22.5837 20.452 22.4032 20.3118 22.3013L19.1917 21.4875C18.8782 21.2598 19.0394 20.7639 19.4268 20.7639H20.8113C20.9846 20.7639 21.1382 20.6523 21.1917 20.4875L21.6196 19.1708Z" fill="#FFC8C5"/>
<defs>
<filter id="filter0_f_1116_41387" x="0" y="0" width="44" height="44" filterUnits="userSpaceOnUse" color-interpolation-filters="sRGB">
<feFlood flood-opacity="0" result="BackgroundImageFix"/>
<feBlend mode="normal" in="SourceGraphic" in2="BackgroundImageFix" result="shape"/>
<feGaussianBlur stdDeviation="8" result="effect1_foregroundBlur_1116_41387"/>
</filter>
</defs>
</svg>
