<svg width="24" height="24" viewBox="0 0 24 24" fill="none" xmlns="http://www.w3.org/2000/svg">
<path fillRule="evenodd" clipRule="evenodd" d="M3.20226 12.5618C3.20226 17.5931 7.28094 21.6718 12.3122 21.6718C14.0473 21.672 15.7465 21.1767 17.2097 20.2441C18.673 19.3115 19.8394 17.9804 20.5718 16.4074C20.6632 16.2049 20.8117 16.0336 20.9992 15.9144C21.1866 15.7953 21.4048 15.7336 21.6269 15.7368C21.849 15.7346 22.0669 15.7973 22.2539 15.9172C22.4408 16.0372 22.5885 16.2092 22.679 16.4121C22.7527 16.5706 22.79 16.7436 22.7883 16.9184C22.7866 17.0932 22.7459 17.2654 22.6692 17.4225C21.7457 19.3892 20.2812 21.0523 18.4471 22.2172C16.6129 23.382 14.485 24.0004 12.3122 24C5.99526 24 0.874023 18.879 0.874023 12.5618C0.874023 6.24464 5.99526 1.12364 12.3122 1.12364C13.878 1.12175 15.4275 1.44227 16.8641 2.06526C18.3007 2.68824 19.5937 3.60033 20.6624 4.74474L20.7726 1.14094C20.7773 0.98646 20.8124 0.834424 20.8759 0.693512C20.9394 0.552601 21.03 0.425575 21.1426 0.319686C21.2552 0.213796 21.3875 0.131118 21.5321 0.0763714C21.6766 0.0216247 21.8305 -0.00411816 21.985 0.00061251C22.1395 0.00534318 22.2915 0.0404547 22.4324 0.103943C22.5733 0.16743 22.7003 0.258051 22.8062 0.37063C22.9121 0.48321 22.9948 0.615543 23.0495 0.760075C23.1043 0.904607 23.13 1.05851 23.1253 1.21299L22.9307 7.56957C22.9257 7.7314 22.8872 7.89044 22.8177 8.03669C22.7482 8.18294 22.6492 8.31324 22.527 8.41941C22.4135 8.53491 22.2774 8.62571 22.1272 8.6861C21.977 8.74648 21.8159 8.77516 21.654 8.77032L15.2975 8.57574C15.143 8.57101 14.9909 8.5359 14.85 8.47242C14.7091 8.40893 14.5821 8.31831 14.4762 8.20574C14.3703 8.09316 14.2876 7.96083 14.2329 7.8163C14.1781 7.67177 14.1524 7.51787 14.1571 7.36339C14.1618 7.20891 14.1969 7.05687 14.2604 6.91596C14.3239 6.77504 14.4145 6.64802 14.5271 6.54212C14.6397 6.43623 14.772 6.35355 14.9165 6.2988C15.0611 6.24405 15.215 6.21831 15.3695 6.22303L18.9595 6.33282C18.1084 5.42227 17.079 4.6966 15.9355 4.20096C14.7919 3.70533 13.5585 3.45033 12.3122 3.45183C7.28094 3.45183 3.20226 7.53052 3.20226 12.5618Z" fill="#2F2F2F"/>
</svg>
