<svg width="12" height="12" viewBox="0 0 12 12" fill="none" xmlns="http://www.w3.org/2000/svg">
<path fillRule="evenodd" clipRule="evenodd" d="M1.60605 0.255356C1.2656 -0.0850943 0.713617 -0.0850945 0.373167 0.255356C0.0327162 0.595806 0.0327163 1.14779 0.373167 1.48824L4.82608 5.94115L0.255461 10.5118C-0.0849896 10.8522 -0.0849897 11.4042 0.255461 11.7446C0.595912 12.0851 1.14789 12.0851 1.48834 11.7446L6.05896 7.17403L10.4931 11.6081C10.8335 11.9486 11.3855 11.9486 11.7259 11.6081C12.0664 11.2677 12.0664 10.7157 11.7259 10.3752L7.29184 5.94115L11.6082 1.62476C11.9487 1.28431 11.9487 0.732329 11.6082 0.391879C11.2678 0.0514281 10.7158 0.0514285 10.3754 0.391879L6.05896 4.70827L1.60605 0.255356Z" fill="#86959E"/>
</svg>
