<svg width="20" height="20" viewBox="0 0 20 20" fill="none" xmlns="http://www.w3.org/2000/svg">
<g clip-path="url(#clip0_2618_16546)">
<path d="M10 0C4.47801 0 0 4.47801 0 10C0 15.522 4.47801 20 10 20C15.522 20 20 15.522 20 10C20 4.47801 15.522 0 10 0ZM15.0168 7.65129V9.00531C14.3783 9.00555 13.758 8.88043 13.1729 8.63359C12.7967 8.47477 12.4462 8.27012 12.1256 8.02281L12.1352 12.1905C12.1312 13.129 11.7599 14.0107 11.0879 14.6749C10.541 15.2155 9.84805 15.5593 9.09695 15.6706C8.92047 15.6968 8.74086 15.7102 8.55922 15.7102C7.7552 15.7102 6.99188 15.4497 6.36746 14.9691C6.24996 14.8787 6.13758 14.7806 6.03059 14.6749C5.3023 13.9551 4.92676 12.9796 4.99 11.9533C5.03824 11.1721 5.35102 10.427 5.87242 9.84309C6.56227 9.07035 7.52734 8.64145 8.55922 8.64145C8.74086 8.64145 8.92047 8.65508 9.09695 8.68121V9.18184V10.5745C8.92961 10.5193 8.7509 10.4889 8.56481 10.4889C7.62207 10.4889 6.85938 11.2581 6.87348 12.2015C6.88242 12.8052 7.21215 13.3328 7.69848 13.6237C7.92703 13.7604 8.18996 13.8451 8.47055 13.8605C8.69039 13.8725 8.90148 13.8419 9.09695 13.7774C9.77051 13.5549 10.2564 12.9222 10.2564 12.1761L10.2586 9.38516V4.28984H12.1233C12.1251 4.47461 12.1439 4.65488 12.1787 4.82957C12.3195 5.53664 12.718 6.15008 13.2727 6.56828C13.7564 6.93309 14.3586 7.14934 15.0114 7.14934C15.0118 7.14934 15.0172 7.14934 15.0168 7.14891V7.65129H15.0168Z" fill="#86959E"/>
</g>
<defs>
<clipPath id="clip0_2618_16546">
<rect width="20" height="20" fill="white"/>
</clipPath>
</defs>
</svg>
