<svg width="41" height="40" viewBox="0 0 41 40" fill="none" xmlns="http://www.w3.org/2000/svg">
<g filter="url(#filter0_ii_928_23559)">
<circle cx="20" cy="20" r="20" transform="matrix(-1 0 0 1 40.0039 0)" fill="#FF773D"/>
</g>
<mask id="mask0_928_23559" style="mask-type:alpha" maskUnits="userSpaceOnUse" x="0" y="0" width="41" height="40">
<circle cx="20" cy="20" r="20" transform="matrix(-1 0 0 1 40.0039 0)" fill="#5DADF8"/>
</mask>
<g mask="url(#mask0_928_23559)">
<g filter="url(#filter1_f_928_23559)">
<circle cx="12.4138" cy="12.4138" r="12.4138" transform="matrix(-1 0 0 1 17.9348 -8.56323)" fill="#FFDF39"/>
</g>
<g filter="url(#filter2_f_928_23559)">
<circle cx="12.4138" cy="12.4138" r="12.4138" transform="matrix(-1 0 0 1 53.7971 12.127)" fill="#FFDF39"/>
</g>
</g>
<g clip-path="url(#clip0_928_23559)">
<path d="M20.8485 28.0123L21.1484 27.9515C21.5442 27.8712 21.5442 27.3055 21.1484 27.2252L20.8485 27.1644C20.0929 27.0112 19.5024 26.4207 19.3492 25.6651L19.2884 25.3652C19.2081 24.9694 18.6424 24.9694 18.5621 25.3652L18.5013 25.6651C18.3481 26.4207 17.7576 27.0112 17.002 27.1644L16.7021 27.2252C16.3063 27.3055 16.3063 27.8712 16.7021 27.9515L17.002 28.0123C17.7576 28.1654 18.3481 28.756 18.5013 29.5115L18.5621 29.8115C18.6424 30.2073 19.2081 30.2073 19.2884 29.8115L19.3492 29.5115C19.5024 28.756 20.0929 28.1654 20.8485 28.0123Z" fill="url(#paint0_linear_928_23559)"/>
<path d="M19.8032 16.3244L21.2388 16.0333C21.9165 15.8959 21.9165 14.9273 21.2388 14.7899L19.8032 14.4988C18.3885 14.212 17.2828 13.1064 16.996 11.6917L16.705 10.2561C16.5675 9.57837 15.599 9.57837 15.4615 10.2561L15.1705 11.6917C14.8836 13.1064 13.778 14.212 12.3633 14.4988L10.9277 14.7899C10.25 14.9273 10.25 15.8959 10.9277 16.0333L12.3633 16.3244C13.778 16.6112 14.8836 17.7169 15.1705 19.1315L15.4615 20.5671C15.599 21.2449 16.5675 21.2449 16.705 20.5671L16.996 19.1315C17.2828 17.7169 18.3885 16.6113 19.8032 16.3244Z" fill="url(#paint1_linear_928_23559)"/>
<path d="M30.0112 21.3195L31.1137 21.096C31.6342 20.9905 31.6342 20.2466 31.1137 20.141L30.0112 19.9175C28.9247 19.6972 28.0756 18.8481 27.8554 17.7617L27.6318 16.6592C27.5263 16.1387 26.7824 16.1387 26.6769 16.6592L26.4534 17.7617C26.2331 18.8481 25.384 19.6972 24.2976 19.9175L23.1951 20.141C22.6746 20.2466 22.6746 20.9905 23.1951 21.096L24.2976 21.3195C25.384 21.5398 26.2331 22.3889 26.4534 23.4754L26.6769 24.5779C26.7825 25.0984 27.5264 25.0984 27.6318 24.5779L27.8554 23.4754C28.0757 22.3889 28.9248 21.5398 30.0112 21.3195Z" fill="url(#paint2_linear_928_23559)"/>
</g>
<defs>
<filter id="filter0_ii_928_23559" x="0.00390625" y="0" width="40" height="40" filterUnits="userSpaceOnUse" color-interpolation-filters="sRGB">
<feFlood flood-opacity="0" result="BackgroundImageFix"/>
<feBlend mode="normal" in="SourceGraphic" in2="BackgroundImageFix" result="shape"/>
<feColorMatrix in="SourceAlpha" type="matrix" values="0 0 0 0 0 0 0 0 0 0 0 0 0 0 0 0 0 0 127 0" result="hardAlpha"/>
<feOffset dy="2"/>
<feComposite in2="hardAlpha" operator="arithmetic" k2="-1" k3="1"/>
<feColorMatrix type="matrix" values="0 0 0 0 1 0 0 0 0 0.732301 0 0 0 0 0.5 0 0 0 1 0"/>
<feBlend mode="normal" in2="shape" result="effect1_innerShadow_928_23559"/>
<feColorMatrix in="SourceAlpha" type="matrix" values="0 0 0 0 0 0 0 0 0 0 0 0 0 0 0 0 0 0 127 0" result="hardAlpha"/>
<feOffset dy="-2"/>
<feComposite in2="hardAlpha" operator="arithmetic" k2="-1" k3="1"/>
<feColorMatrix type="matrix" values="0 0 0 0 0 0 0 0 0 0 0 0 0 0 0 0 0 0 0.13 0"/>
<feBlend mode="normal" in2="effect1_innerShadow_928_23559" result="effect2_innerShadow_928_23559"/>
</filter>
<filter id="filter1_f_928_23559" x="-21.8928" y="-23.5632" width="54.8276" height="54.8276" filterUnits="userSpaceOnUse" color-interpolation-filters="sRGB">
<feFlood flood-opacity="0" result="BackgroundImageFix"/>
<feBlend mode="normal" in="SourceGraphic" in2="BackgroundImageFix" result="shape"/>
<feGaussianBlur stdDeviation="7.5" result="effect1_foregroundBlur_928_23559"/>
</filter>
<filter id="filter2_f_928_23559" x="13.9695" y="-2.87305" width="54.8276" height="54.8276" filterUnits="userSpaceOnUse" color-interpolation-filters="sRGB">
<feFlood flood-opacity="0" result="BackgroundImageFix"/>
<feBlend mode="normal" in="SourceGraphic" in2="BackgroundImageFix" result="shape"/>
<feGaussianBlur stdDeviation="7.5" result="effect1_foregroundBlur_928_23559"/>
</filter>
<linearGradient id="paint0_linear_928_23559" x1="18.9252" y1="25.0684" x2="18.9252" y2="30.1083" gradientUnits="userSpaceOnUse">
<stop stop-color="#FFEECE"/>
<stop offset="0.489583" stop-color="#FFF1C2"/>
<stop offset="1" stop-color="#FFF6C8"/>
</linearGradient>
<linearGradient id="paint1_linear_928_23559" x1="16.0832" y1="9.7478" x2="16.0832" y2="21.0754" gradientUnits="userSpaceOnUse">
<stop stop-color="#FFEECE"/>
<stop offset="0.489583" stop-color="#FFF1C2"/>
<stop offset="1" stop-color="#FFF6C8"/>
</linearGradient>
<linearGradient id="paint2_linear_928_23559" x1="27.1544" y1="16.2688" x2="27.1544" y2="24.9682" gradientUnits="userSpaceOnUse">
<stop stop-color="#FFEECE"/>
<stop offset="0.489583" stop-color="#FFF1C2"/>
<stop offset="1" stop-color="#FFF6C8"/>
</linearGradient>
<clipPath id="clip0_928_23559">
<rect width="24" height="24" fill="white" transform="translate(7.50391 9)"/>
</clipPath>
</defs>
</svg>
