<svg width="40" height="40" viewBox="0 0 40 40" fill="none" xmlns="http://www.w3.org/2000/svg">
<g filter="url(#filter0_ii_952_28567)">
<circle cx="20" cy="20" r="20" transform="matrix(-1 0 0 1 40 0)" fill="#C6E7F9"/>
</g>
<mask id="mask0_952_28567" style="mask-type:alpha" maskUnits="userSpaceOnUse" x="0" y="0" width="40" height="40">
<circle cx="20" cy="20" r="20" transform="matrix(-1 0 0 1 40 0)" fill="#A4C6DA"/>
</mask>
<g mask="url(#mask0_952_28567)">
<g opacity="0.7" filter="url(#filter1_f_952_28567)">
<circle cx="13.75" cy="13.75" r="13.75" transform="matrix(-1 0 0 1 20 2.5)" fill="white"/>
</g>
<g opacity="0.7" filter="url(#filter2_f_952_28567)">
<circle cx="13.75" cy="13.75" r="13.75" transform="matrix(-1 0 0 1 50 12.5)" fill="white"/>
</g>
<path opacity="0.8" d="M21.8446 28.5123L22.1445 28.4515C22.5403 28.3712 22.5403 27.8055 22.1445 27.7252L21.8446 27.6644C21.089 27.5112 20.4984 26.9207 20.3453 26.1651L20.2845 25.8652C20.2042 25.4694 19.6385 25.4694 19.5582 25.8652L19.4974 26.1651C19.3442 26.9207 18.7537 27.5112 17.9981 27.6644L17.6982 27.7252C17.3024 27.8055 17.3024 28.3712 17.6982 28.4515L17.9981 28.5123C18.7537 28.6654 19.3442 29.256 19.4974 30.0115L19.5582 30.3115C19.6385 30.7073 20.2042 30.7073 20.2845 30.3115L20.3453 30.0115C20.4984 29.256 21.089 28.6654 21.8446 28.5123Z" fill="#C6E7F9"/>
<path opacity="0.8" d="M20.7993 16.8246L22.2349 16.5336C22.9126 16.3961 22.9126 15.4276 22.2349 15.2901L20.7993 14.9991C19.3846 14.7123 18.2789 13.6066 17.9921 12.1919L17.7011 10.7563C17.5636 10.0786 16.5951 10.0786 16.4576 10.7563L16.1666 12.1919C15.8797 13.6066 14.7741 14.7123 13.3594 14.9991L11.9238 15.2901C11.2461 15.4276 11.2461 16.3961 11.9238 16.5336L13.3594 16.8246C14.7741 17.1115 15.8797 18.2171 16.1666 19.6318L16.4576 21.0674C16.5951 21.7451 17.5636 21.7451 17.7011 21.0674L17.9921 19.6318C18.2789 18.2171 19.3846 17.1115 20.7993 16.8246Z" fill="#C6E7F9"/>
<path opacity="0.8" d="M31.0073 21.8193L32.1098 21.5957C32.6303 21.4902 32.6303 20.7463 32.1098 20.6408L31.0073 20.4173C29.9208 20.1969 29.0717 19.3479 28.8515 18.2614L28.6279 17.1589C28.5224 16.6384 27.7785 16.6384 27.673 17.1589L27.4495 18.2614C27.2292 19.3479 26.3801 20.197 25.2937 20.4173L24.1912 20.6408C23.6707 20.7463 23.6707 21.4902 24.1912 21.5957L25.2937 21.8193C26.3801 22.0396 27.2292 22.8886 27.4495 23.9751L27.673 25.0776C27.7785 25.5981 28.5225 25.5981 28.6279 25.0776L28.8515 23.9751C29.0718 22.8887 29.9209 22.0396 31.0073 21.8193Z" fill="#C6E7F9"/>
</g>
<g clip-path="url(#clip0_952_28567)">
<path d="M20.8446 28.0123L21.1445 27.9515C21.5403 27.8712 21.5403 27.3055 21.1445 27.2252L20.8446 27.1644C20.089 27.0112 19.4984 26.4207 19.3453 25.6651L19.2845 25.3652C19.2042 24.9694 18.6385 24.9694 18.5582 25.3652L18.4974 25.6651C18.3442 26.4207 17.7537 27.0112 16.9981 27.1644L16.6982 27.2252C16.3024 27.3055 16.3024 27.8712 16.6982 27.9515L16.9981 28.0123C17.7537 28.1654 18.3442 28.756 18.4974 29.5115L18.5582 29.8115C18.6385 30.2073 19.2042 30.2073 19.2845 29.8115L19.3453 29.5115C19.4984 28.756 20.089 28.1654 20.8446 28.0123Z" fill="white"/>
<path d="M19.7993 16.3246L21.2349 16.0336C21.9126 15.8961 21.9126 14.9276 21.2349 14.7901L19.7993 14.4991C18.3846 14.2123 17.2789 13.1066 16.9921 11.6919L16.7011 10.2563C16.5636 9.57862 15.5951 9.57862 15.4576 10.2563L15.1666 11.6919C14.8797 13.1066 13.7741 14.2123 12.3594 14.4991L10.9238 14.7901C10.2461 14.9276 10.2461 15.8961 10.9238 16.0336L12.3594 16.3246C13.7741 16.6115 14.8797 17.7171 15.1666 19.1318L15.4576 20.5674C15.5951 21.2451 16.5636 21.2451 16.7011 20.5674L16.9921 19.1318C17.2789 17.7171 18.3846 16.6115 19.7993 16.3246Z" fill="white"/>
<path d="M30.0073 21.3193L31.1098 21.0957C31.6303 20.9902 31.6303 20.2463 31.1098 20.1408L30.0073 19.9173C28.9208 19.6969 28.0717 18.8479 27.8515 17.7614L27.6279 16.6589C27.5224 16.1384 26.7785 16.1384 26.673 16.6589L26.4495 17.7614C26.2292 18.8479 25.3801 19.697 24.2937 19.9173L23.1912 20.1408C22.6707 20.2463 22.6707 20.9902 23.1912 21.0957L24.2937 21.3193C25.3801 21.5396 26.2292 22.3886 26.4495 23.4751L26.673 24.5776C26.7785 25.0981 27.5225 25.0981 27.6279 24.5776L27.8515 23.4751C28.0718 22.3887 28.9209 21.5396 30.0073 21.3193Z" fill="white"/>
</g>
<defs>
<filter id="filter0_ii_952_28567" x="0" y="0" width="40" height="40" filterUnits="userSpaceOnUse" color-interpolation-filters="sRGB">
<feFlood flood-opacity="0" result="BackgroundImageFix"/>
<feBlend mode="normal" in="SourceGraphic" in2="BackgroundImageFix" result="shape"/>
<feColorMatrix in="SourceAlpha" type="matrix" values="0 0 0 0 0 0 0 0 0 0 0 0 0 0 0 0 0 0 127 0" result="hardAlpha"/>
<feOffset dy="2"/>
<feComposite in2="hardAlpha" operator="arithmetic" k2="-1" k3="1"/>
<feColorMatrix type="matrix" values="0 0 0 0 0.829167 0 0 0 0 0.938988 0 0 0 0 1 0 0 0 1 0"/>
<feBlend mode="normal" in2="shape" result="effect1_innerShadow_952_28567"/>
<feColorMatrix in="SourceAlpha" type="matrix" values="0 0 0 0 0 0 0 0 0 0 0 0 0 0 0 0 0 0 127 0" result="hardAlpha"/>
<feOffset dy="-2"/>
<feComposite in2="hardAlpha" operator="arithmetic" k2="-1" k3="1"/>
<feColorMatrix type="matrix" values="0 0 0 0 0.638802 0 0 0 0 0.824635 0 0 0 0 0.929167 0 0 0 1 0"/>
<feBlend mode="normal" in2="effect1_innerShadow_952_28567" result="effect2_innerShadow_952_28567"/>
</filter>
<filter id="filter1_f_952_28567" x="-22.5" y="-12.5" width="57.5" height="57.5" filterUnits="userSpaceOnUse" color-interpolation-filters="sRGB">
<feFlood flood-opacity="0" result="BackgroundImageFix"/>
<feBlend mode="normal" in="SourceGraphic" in2="BackgroundImageFix" result="shape"/>
<feGaussianBlur stdDeviation="7.5" result="effect1_foregroundBlur_952_28567"/>
</filter>
<filter id="filter2_f_952_28567" x="7.5" y="-2.5" width="57.5" height="57.5" filterUnits="userSpaceOnUse" color-interpolation-filters="sRGB">
<feFlood flood-opacity="0" result="BackgroundImageFix"/>
<feBlend mode="normal" in="SourceGraphic" in2="BackgroundImageFix" result="shape"/>
<feGaussianBlur stdDeviation="7.5" result="effect1_foregroundBlur_952_28567"/>
</filter>
<clipPath id="clip0_952_28567">
<rect width="24" height="24" fill="white" transform="translate(7.5 9)"/>
</clipPath>
</defs>
</svg>
