<svg width="41" height="40" viewBox="0 0 41 40" fill="none" xmlns="http://www.w3.org/2000/svg">
<g filter="url(#filter0_ii_928_23572)">
<circle cx="20" cy="20" r="20" transform="matrix(-1 0 0 1 40.0039 0)" fill="#C6E7F9"/>
</g>
<mask id="mask0_928_23572" style="mask-type:alpha" maskUnits="userSpaceOnUse" x="0" y="0" width="41" height="40">
<circle cx="20" cy="20" r="20" transform="matrix(-1 0 0 1 40.0039 0)" fill="#A4C6DA"/>
</mask>
<g mask="url(#mask0_928_23572)">
<g opacity="0.7" filter="url(#filter1_f_928_23572)">
<circle cx="13.75" cy="13.75" r="13.75" transform="matrix(-1 0 0 1 20.0039 2.5)" fill="#E3EDF2"/>
</g>
<g opacity="0.7" filter="url(#filter2_f_928_23572)">
<circle cx="13.75" cy="13.75" r="13.75" transform="matrix(-1 0 0 1 50.0039 12.5)" fill="white"/>
</g>
</g>
<path opacity="0.8" d="M22.9454 28.7936V29.5C22.9454 30.0523 22.4977 30.5 21.9454 30.5H20.3076C19.7553 30.5 19.3076 30.0523 19.3076 29.5V28.8036C16.6892 28.3261 14.9504 26.7495 14.5787 24.3543C14.4941 23.8086 14.9519 23.3576 15.5042 23.3576H18.1593C18.7116 23.3576 19.1215 23.8514 19.4461 24.2982C19.7909 24.7728 20.4062 25.01 21.0677 25.01C22.0127 25.01 22.9133 24.529 22.9133 23.6889C22.9133 22.6688 21.6497 22.373 20.1005 21.9901C17.735 21.4023 14.7232 20.672 14.7232 16.9595C14.7232 14.316 16.3616 12.6008 19.144 12.1033V11.5C19.144 10.9477 19.5917 10.5 20.144 10.5H21.7818C22.3341 10.5 22.7818 10.9477 22.7818 11.5V12.12C25.1942 12.5906 26.6884 14.0375 27.0305 16.2C27.1166 16.7446 26.6595 17.1951 26.1081 17.1963L23.5879 17.202C23.0347 17.2032 22.6259 16.6915 22.2512 16.2846C21.9408 15.9476 21.4437 15.7815 20.8861 15.7815C20.0741 15.7815 19.2988 16.1157 19.2988 16.82C19.2988 17.7533 20.5241 18.0593 22.0759 18.4527C24.4865 19.075 27.6342 19.8645 27.6342 23.599C27.634 26.5147 25.7511 28.2737 22.9454 28.7936Z" fill="#C6E7F9"/>
<path d="M21.4454 28.2936V29C21.4454 29.5523 20.9977 30 20.4454 30H18.8076C18.2553 30 17.8076 29.5523 17.8076 29V28.3036C15.1892 27.8261 13.4504 26.2495 13.0787 23.8543C12.9941 23.3086 13.4519 22.8576 14.0042 22.8576H16.6593C17.2116 22.8576 17.6215 23.3514 17.9461 23.7982C18.2909 24.2728 18.9062 24.51 19.5677 24.51C20.5127 24.51 21.4133 24.029 21.4133 23.1889C21.4133 22.1688 20.1497 21.873 18.6005 21.4901C16.235 20.9023 13.2232 20.172 13.2232 16.4595C13.2232 13.816 14.8616 12.1008 17.644 11.6033V11C17.644 10.4477 18.0917 10 18.644 10H20.2818C20.8341 10 21.2818 10.4477 21.2818 11V11.62C23.6942 12.0906 25.1884 13.5375 25.5305 15.7C25.6166 16.2446 25.1595 16.6951 24.6081 16.6963L22.0879 16.702C21.5347 16.7032 21.1259 16.1915 20.7512 15.7846C20.4408 15.4476 19.9437 15.2815 19.3861 15.2815C18.5741 15.2815 17.7988 15.6157 17.7988 16.32C17.7988 17.2533 19.0241 17.5593 20.5759 17.9527C22.9865 18.575 26.1342 19.3645 26.1342 23.099C26.134 26.0147 24.2511 27.7737 21.4454 28.2936Z" fill="white"/>
<defs>
<filter id="filter0_ii_928_23572" x="0.00390625" y="0" width="40" height="40" filterUnits="userSpaceOnUse" color-interpolation-filters="sRGB">
<feFlood flood-opacity="0" result="BackgroundImageFix"/>
<feBlend mode="normal" in="SourceGraphic" in2="BackgroundImageFix" result="shape"/>
<feColorMatrix in="SourceAlpha" type="matrix" values="0 0 0 0 0 0 0 0 0 0 0 0 0 0 0 0 0 0 127 0" result="hardAlpha"/>
<feOffset dy="2"/>
<feComposite in2="hardAlpha" operator="arithmetic" k2="-1" k3="1"/>
<feColorMatrix type="matrix" values="0 0 0 0 0.829167 0 0 0 0 0.938988 0 0 0 0 1 0 0 0 1 0"/>
<feBlend mode="normal" in2="shape" result="effect1_innerShadow_928_23572"/>
<feColorMatrix in="SourceAlpha" type="matrix" values="0 0 0 0 0 0 0 0 0 0 0 0 0 0 0 0 0 0 127 0" result="hardAlpha"/>
<feOffset dy="-2"/>
<feComposite in2="hardAlpha" operator="arithmetic" k2="-1" k3="1"/>
<feColorMatrix type="matrix" values="0 0 0 0 0.638802 0 0 0 0 0.824635 0 0 0 0 0.929167 0 0 0 1 0"/>
<feBlend mode="normal" in2="effect1_innerShadow_928_23572" result="effect2_innerShadow_928_23572"/>
</filter>
<filter id="filter1_f_928_23572" x="-22.4961" y="-12.5" width="57.5" height="57.5" filterUnits="userSpaceOnUse" color-interpolation-filters="sRGB">
<feFlood flood-opacity="0" result="BackgroundImageFix"/>
<feBlend mode="normal" in="SourceGraphic" in2="BackgroundImageFix" result="shape"/>
<feGaussianBlur stdDeviation="7.5" result="effect1_foregroundBlur_928_23572"/>
</filter>
<filter id="filter2_f_928_23572" x="7.50391" y="-2.5" width="57.5" height="57.5" filterUnits="userSpaceOnUse" color-interpolation-filters="sRGB">
<feFlood flood-opacity="0" result="BackgroundImageFix"/>
<feBlend mode="normal" in="SourceGraphic" in2="BackgroundImageFix" result="shape"/>
<feGaussianBlur stdDeviation="7.5" result="effect1_foregroundBlur_928_23572"/>
</filter>
</defs>
</svg>
