<svg width="370" height="109" viewBox="0 0 370 109" fill="none" xmlns="http://www.w3.org/2000/svg">
<path fill-rule="evenodd" clip-rule="evenodd" d="M149.106 29C149.106 27.5512 149.106 26.8268 149.096 26.6538C148.893 23.13 146.976 21.2136 143.453 21.01C143.28 21 142.831 21 141.932 21H44.2C27.3085 21 18.8627 21 12.7323 25.1982C10.7469 26.5578 8.97726 28.2083 7.48275 30.0943C2.86813 35.9177 2.28035 44.343 1.1048 61.1935L0.993179 62.7935C-0.340963 81.9174 -1.00803 91.4793 3.5135 98.2833C4.96948 100.474 6.77576 102.411 8.86007 104.016C15.3329 109 24.9181 109 44.0884 109H324.917C344.087 109 353.672 109 360.145 104.016C362.229 102.411 364.036 100.474 365.491 98.2833C370.013 91.4793 369.346 81.9174 368.012 62.7935L367.9 61.1935C366.725 44.343 366.137 35.9177 361.522 30.0943C360.028 28.2083 358.258 26.5578 356.273 25.1982C350.142 21 341.696 21 324.805 21H228.281C227.382 21 226.933 21 226.76 21.01C223.236 21.2136 221.32 23.13 221.116 26.6538C221.106 26.8268 221.106 27.5512 221.106 29C221.106 48.8822 204.989 65 185.106 65C165.224 65 149.106 48.8822 149.106 29Z" fill="#FAFDFF"/>
<rect x="214.504" width="60" height="60" rx="30" transform="rotate(90 214.504 0)" fill="#FF6E2D"/>
<mask id="mask0_1841_43629" style="mask-type:alpha" maskUnits="userSpaceOnUse" x="154" y="0" width="61" height="60">
<rect x="212.504" y="2" width="56" height="56" rx="28" transform="rotate(90 212.504 2)" fill="#FF773D" stroke="#D9F1FF" stroke-width="4"/>
</mask>
<g mask="url(#mask0_1841_43629)">
<g filter="url(#filter0_f_1841_43629)">
<circle cx="184.808" cy="30" r="27" fill="url(#paint0_radial_1841_43629)"/>
</g>
</g>
<rect x="213.004" y="1.5" width="57" height="57" rx="28.5" transform="rotate(90 213.004 1.5)" stroke="white" stroke-width="3"/>
<path d="M213.672 25.9464C210.773 26.2078 209.583 29.5939 211.917 31.8188C208.639 32.5628 209.886 35.7229 210.624 36.8499C204.907 33.3932 203.866 37.1418 202.723 33.6704C201.581 30.1993 207.96 23.3205 213.672 25.9468L213.672 25.9464Z" fill="#FF6B3D"/>
<path d="M201.574 32.8893C202.174 28.4037 208.008 22.1844 213.797 25.4019C214.562 26.0213 214.251 26.2263 213.096 26.1698C211.427 26.0882 207.388 25.5138 203.881 32.2145C207.125 29.5469 210.94 30.1717 212.369 31.9279C212.622 32.5944 209.662 31.3827 204.845 34.1084C207.623 33.669 211.082 35.5233 210.778 37.1217C210.282 37.6706 207.861 35.2781 203.169 35.5599C202.432 35.5563 201.274 34.1786 201.574 32.889V32.8893Z" fill="#63A8DB"/>
<path d="M201.928 31.2049C201.367 32.5997 202.721 33.5278 203.429 31.7924C204.374 29.4776 207.375 25.5022 212.023 25.5076C210.585 24.5136 204.505 24.8028 201.928 31.2049Z" fill="#79B9E9"/>
<path d="M203.485 32.3885C202.654 33.2128 202.832 34.5018 203.905 33.6092C204.976 32.717 208.358 30.8825 210.977 31.3478C208.974 29.9184 205.687 30.2019 203.485 32.3885Z" fill="#79B9E9"/>
<path d="M204 34.5981C205.861 34.0458 208.174 34.2846 209.975 36.2125C207.448 35.6122 203.415 35.3166 204 34.5981Z" fill="#79B9E9"/>
<path d="M202.505 29.8643C201.94 30.9301 202.627 32.1805 203.588 30.5284C204.548 28.878 203.836 27.3532 202.505 29.8643Z" fill="#46F7C9"/>
<path d="M176.332 12.1839C176.752 10.9208 171.288 10.2697 170.446 11.4845C169.822 12.3837 170.204 15.2589 170.974 15.8223C171.968 16.5482 176.054 13.0173 176.332 12.1839Z" fill="#FF6B3D"/>
<path d="M173.822 10.9009C171.316 10.5596 170.576 11.4045 172.866 11.8053C175.157 12.2067 175.703 11.1563 173.822 10.9009Z" fill="#FFBF60"/>
<path d="M171.1 17.7477C170.896 16.2747 164.893 17.5871 164.633 19.1653C164.441 20.332 166.065 22.7264 167.15 23.0342C168.551 23.4312 171.235 18.7212 171.1 17.7477Z" fill="#FF6B3D"/>
<path d="M168.312 17.4181C166.097 17.5605 164.278 18.8606 166.409 18.6566C168.541 18.4521 171.573 17.2068 168.312 17.4181Z" fill="#FFBF60"/>
<path d="M189.83 6.19099C189.068 6.62031 191.775 8.5848 190.862 11.4466C190.68 12.4214 194.496 13.0066 194.668 11.9995C195.117 9.36784 191.875 5.03877 189.83 6.19099Z" fill="#FF6B3D"/>
<path d="M191.575 6.53127C193.514 7.45507 194.517 10.1539 194.421 11.1425C194.325 12.1312 192.325 12.41 192.303 11.5446C192.281 10.6789 191.442 7.89882 191.111 7.28072C190.78 6.66295 191.091 6.30083 191.575 6.53094V6.53127Z" fill="#FFC78A"/>
<path d="M186.182 9.44705C197.167 10.3074 203.343 16.9617 204.284 24.5657C205.006 30.3974 204.114 32.0108 206.09 35.1954C209.153 40.1305 204.226 52.4049 181.997 49.5845C166.967 47.6781 161.337 37.8617 165.429 24.2049C168.761 13.0925 177.257 8.74832 186.182 9.44705H186.182Z" fill="#63A8DB"/>
<path d="M188.593 12.1296C175.56 11.9267 169.533 22.3992 169.757 33.0406C170.074 48.1015 189.438 49.9548 197.434 47.5819C203.257 45.8549 208.104 40.9829 205.333 34.8184C202.564 28.6525 206.337 12.4057 188.593 12.1296Z" fill="#79B9E9"/>
<path d="M193.905 40.0058C195.258 39.0622 196.179 41.6405 195.367 41.885C194.554 42.1299 193.189 40.504 193.905 40.0058Z" fill="#63A8DB"/>
<path d="M201.052 38.4667C199.409 38.3266 199.899 41.0211 200.725 40.8269C201.551 40.6331 201.922 38.5423 201.052 38.4667Z" fill="#63A8DB"/>
<path d="M186.952 37.7114C189.108 33.2766 183.432 23.0893 175.425 26.9625C169.35 29.9025 171.302 36.8327 174.958 39.0397C179.262 41.6388 185.491 40.7166 186.952 37.7114Z" fill="#63A8DB"/>
<path d="M186.441 37.9401C188.432 33.8452 183.191 24.4413 175.799 28.0162C170.19 30.7308 171.992 37.1282 175.369 39.1679C179.343 41.5661 185.093 40.7142 186.442 37.9401H186.441Z" fill="#BF6945"/>
<path d="M185.404 37.6764C187.156 34.0706 182.542 25.7917 176.035 28.9413C171.096 31.3281 172.683 36.9615 175.655 38.755C179.153 40.8673 184.215 40.1186 185.404 37.6764Z" fill="#FFF4EE"/>
<path d="M178.83 27.1786C181.532 27.1332 184.872 31.7945 183.868 35.7715C182.864 39.7506 178.344 41.318 174.771 38.7777C170.684 35.872 170.375 27.3206 178.831 27.1786H178.83Z" fill="#323D2B"/>
<path d="M178.384 28.1673C180.868 28.125 183.967 32.3348 183.044 35.9907C182.122 39.6462 177.967 41.0873 174.683 38.752C170.928 36.0821 170.614 28.2973 178.385 28.1676L178.384 28.1673Z" fill="black"/>
<path d="M183.474 35.2962C185.138 35.5777 185.018 33.6065 183.56 33.3716C180.421 32.8657 180.599 34.8091 183.474 35.2962Z" fill="#FFF4EE"/>
<path d="M174.866 34.4722C175.709 34.4315 176.054 35.6889 174.898 35.8736C173.742 36.0591 174.023 34.5111 174.866 34.4722Z" fill="#FFF4EE"/>
<path d="M203.465 24.6524C201.286 23.3701 198.211 30.741 200.972 35.968C201.943 37.8059 205.367 36.6342 205.69 35.2417C206.157 32.3071 205.023 25.5684 203.465 24.6524H203.465Z" fill="#63A8DB"/>
<path d="M203.786 25.4429C201.797 24.2728 198.989 31.0031 201.511 35.7753C202.397 37.4532 205.524 36.383 205.819 35.1118C206.244 32.4321 205.209 26.2793 203.786 25.4429Z" fill="#BF6945"/>
<path d="M203.884 26.5584C202.161 25.5452 199.728 31.3759 201.912 35.5111C202.68 36.9637 205.389 36.0372 205.645 34.9357C206.013 32.6134 205.116 27.2836 203.884 26.5584Z" fill="#FFF4EE"/>
<path d="M202.187 25.9014C204.897 26.1963 205.462 32.3209 205.115 34.1299C204.537 37.1317 202.531 36.8166 201.897 36.2469C199.419 33.7755 200.456 27.0761 202.187 25.9017V25.9014Z" fill="#323D2B"/>
<path d="M202.151 26.6767C205.092 26.846 206.172 35.5028 202.028 36.1297C200.34 35.7941 199.821 26.5437 202.151 26.6767Z" fill="black"/>
<path d="M203.605 30.8678C203.953 30.3051 205.964 30.7831 205.621 32.2303C205.262 33.7483 203.225 31.4802 203.605 30.8678Z" fill="#FFF4EE"/>
<path d="M201.551 30.1855C202.31 30.3484 202.315 31.6081 201.25 31.4415C200.428 31.3135 200.792 30.0232 201.551 30.1855Z" fill="#FFF4EE"/>
<path d="M156 30.5774C159.212 30.3295 161.134 33.8067 158.995 36.6627C162.709 36.8723 161.93 40.551 161.331 41.9166C166.935 37.0927 168.76 40.9911 169.368 36.9929C169.977 32.9944 161.75 26.6619 156 30.5774Z" fill="#FF6B3D"/>
<path d="M170.479 35.9286C169 31.1444 161.489 25.4309 155.763 30.0069C155.043 30.8232 155.42 30.9895 156.67 30.7154C158.477 30.3207 162.778 28.9504 167.838 35.6179C163.808 33.303 159.759 34.6867 158.522 36.8655C158.368 37.6405 161.377 35.7741 167.134 37.8622C164.022 37.8931 160.587 40.5533 161.214 42.2417C161.856 42.7496 164.058 39.6927 169.23 39.1384C170.034 38.9976 171.044 37.2827 170.479 35.929L170.479 35.9286Z" fill="#63A8DB"/>
<path d="M169.784 34.1561C170.652 35.575 169.344 36.8374 168.253 35.0732C166.796 32.7207 162.79 28.9355 157.719 29.7954C159.105 28.4467 165.794 27.6435 169.784 34.1561Z" fill="#79B9E9"/>
<path d="M168.302 35.7339C169.36 36.481 169.403 37.9197 168.069 37.1434C166.735 36.3671 162.708 34.9868 159.934 35.9767C161.857 34.0485 165.497 33.7532 168.302 35.7339Z" fill="#79B9E9"/>
<path d="M168.147 38.2416C166.014 37.9802 163.534 38.6668 161.923 41.102C164.571 39.9827 168.918 38.9171 168.147 38.2416Z" fill="#79B9E9"/>
<path d="M168.906 32.7999C169.719 33.8594 169.199 35.3495 167.847 33.7247C166.495 32.0981 166.992 30.3039 168.906 32.7999Z" fill="#5097CC"/>
<path d="M191.762 16.5562C192.571 16.9587 193.136 13.4909 192.066 12.7727C191.44 12.3518 190.161 12.4935 189.864 13.2521C189.566 14.0113 191.227 16.2892 191.762 16.5562Z" fill="#FF6B3D"/>
<path d="M188.601 12.4697C189.603 12.4801 188.913 8.38082 187.519 8.17691C186.703 8.05732 185.406 8.84036 185.372 9.76684C185.338 10.6943 187.939 12.4637 188.601 12.47L188.601 12.4697Z" fill="#FF6B3D"/>
<path d="M183.341 9.97361C184.292 9.29135 180.852 6.06176 179.398 6.83203C178.547 7.28285 177.453 9.83554 178.308 10.501C178.861 10.9313 182.712 10.4241 183.341 9.97327V9.97361Z" fill="#FF6B3D"/>
<path d="M192.133 12.9788C192.613 13.0372 192.753 16.0404 192.003 16.2329C191.253 16.425 191.855 12.9455 192.133 12.9788Z" fill="#FFBF60"/>
<path d="M187.706 8.22881C188.347 7.99837 189.744 12.0006 188.601 12.4692C187.991 12.4863 187.383 8.3437 187.706 8.22881Z" fill="#FFBF60"/>
<path d="M179.864 6.93311C180.392 6.48465 183.325 8.3225 183.436 9.67393C183.412 9.74884 183.016 10.1341 182.641 9.92285C181.517 9.28627 179.636 7.12694 179.864 6.93311Z" fill="#FFBF60"/>
<path d="M174.451 7.37916C173.324 7.54141 175.568 9.51767 175.175 13.1977C175.024 14.6261 179.308 14.5424 179.167 12.4137C179.096 11.3397 177.404 6.95287 174.45 7.37916H174.451Z" fill="#FF6B3D"/>
<path d="M175.794 7.74827C177.812 8.70935 178.856 11.517 178.756 12.5456C178.656 13.5742 176.575 13.8645 176.551 12.9639C176.529 12.0636 175.656 9.17092 175.312 8.52829C174.968 7.88499 175.291 7.50842 175.794 7.74793V7.74827Z" fill="#FFC78A"/>
<path d="M159.934 32.1012C160.39 31.124 164.177 32.4912 164.829 33.8433C163.281 33.3632 160.958 34.3892 160.391 34.6253C160.839 33.5262 159.934 32.1012 159.934 32.1012H159.934Z" fill="#FFC78A"/>
<path d="M161.561 37.3665C162.575 36.8629 164.508 37.8105 164.508 37.8105C163.318 38.216 162.237 39.5003 162.237 39.5003C162.575 38.554 161.561 37.3665 161.561 37.3665Z" fill="#FFC78A"/>
<path d="M210.871 27.5027C208.573 27.503 207.291 29.406 207.368 30.0252C207.445 30.6443 208.438 29.617 210.668 30.2835C209.992 29.0916 210.871 27.5027 210.871 27.5027Z" fill="#FFC78A"/>
<path d="M209.654 33.2481C209.43 33.843 209.654 34.8364 209.654 34.8364C208.979 34.1941 207.549 34.016 207.098 34.0036C207.863 33.2142 209.294 32.972 209.654 33.2478V33.2481Z" fill="#FFC78A"/>
<path d="M182.799 11.9237C180.134 12.8902 181.244 16.6354 184.925 16.0556C188.644 15.4698 187.039 10.3859 182.799 11.9237Z" fill="#63A8DB"/>
<path d="M189.482 16.9093C191.532 16.3104 193.613 19.6636 191.336 20.4698C189.076 21.27 187.273 17.5543 189.482 16.9093Z" fill="#63A8DB"/>
<path d="M195.317 13.9745C193.633 13.2856 192.966 15.974 194.608 16.6324C196.508 17.3943 196.344 14.3948 195.317 13.9745Z" fill="#63A8DB"/>
<path d="M194.851 22.7627C193.722 21.9467 192.82 24.8646 194.146 24.8525C195.472 24.8404 195.817 23.4601 194.851 22.7627Z" fill="#63A8DB"/>
<defs>
<filter id="filter0_f_1841_43629" x="132.808" y="-22" width="104" height="104" filterUnits="userSpaceOnUse" color-interpolation-filters="sRGB">
<feFlood flood-opacity="0" result="BackgroundImageFix"/>
<feBlend mode="normal" in="SourceGraphic" in2="BackgroundImageFix" result="shape"/>
<feGaussianBlur stdDeviation="12.5" result="effect1_foregroundBlur_1841_43629"/>
</filter>
<radialGradient id="paint0_radial_1841_43629" cx="0" cy="0" r="1" gradientUnits="userSpaceOnUse" gradientTransform="translate(184.808 30) rotate(90) scale(27)">
<stop stop-color="#FFDF39"/>
<stop offset="1" stop-color="#FFDF39" stop-opacity="0.19"/>
</radialGradient>
</defs>
</svg>
