<svg width="41" height="40" viewBox="0 0 41 40" fill="none" xmlns="http://www.w3.org/2000/svg">
<g filter="url(#filter0_ii_952_28062)">
<circle cx="20" cy="20" r="20" transform="matrix(-1 0 0 1 40.0039 0)" fill="#C6E7F9"/>
</g>
<mask id="mask0_952_28062" style="mask-type:alpha" maskUnits="userSpaceOnUse" x="0" y="0" width="41" height="40">
<circle cx="20" cy="20" r="20" transform="matrix(-1 0 0 1 40.0039 0)" fill="#A4C6DA"/>
</mask>
<g mask="url(#mask0_952_28062)">
<g opacity="0.7" filter="url(#filter1_f_952_28062)">
<circle cx="13.75" cy="13.75" r="13.75" transform="matrix(-1 0 0 1 20.0039 2.5)" fill="#E3EDF2"/>
</g>
<g opacity="0.7" filter="url(#filter2_f_952_28062)">
<circle cx="13.75" cy="13.75" r="13.75" transform="matrix(-1 0 0 1 50.0039 12.5)" fill="white"/>
</g>
</g>
<path d="M30.3939 17.8998C29.9927 17.8416 29.6099 17.6936 29.2739 17.4668C28.9378 17.2401 28.6573 16.9404 28.4531 16.5902C28.2489 16.24 28.1264 15.8483 28.0946 15.4441C28.0628 15.04 28.1226 14.6339 28.2695 14.2561C28.3629 14.0091 28.3767 13.7391 28.3089 13.4838C28.2411 13.2286 28.0951 13.001 27.8914 12.833C26.9922 12.0779 25.9686 11.4847 24.8664 11.0798C24.6154 10.9866 24.3414 10.975 24.0834 11.0466C23.8254 11.1182 23.5966 11.2694 23.4295 11.4786C23.1781 11.8001 22.8567 12.0601 22.4899 12.239C22.123 12.4178 21.7202 12.5108 21.312 12.5108C20.9039 12.5108 20.5011 12.4178 20.1342 12.239C19.7673 12.0601 19.446 11.8001 19.1945 11.4786C19.0275 11.2694 18.7987 11.1182 18.5407 11.0466C18.2827 10.975 18.0086 10.9866 17.7577 11.0798C16.7399 11.4536 15.7884 11.9874 14.9389 12.6611C14.7248 12.8306 14.5705 13.0642 14.4988 13.3277C14.427 13.5912 14.4415 13.8708 14.5402 14.1255C14.6988 14.5133 14.7643 14.9329 14.7315 15.3506C14.6987 15.7683 14.5685 16.1725 14.3512 16.5308C14.134 16.8891 13.8358 17.1915 13.4806 17.4137C13.1254 17.6359 12.723 17.7718 12.3058 17.8105C12.0349 17.8394 11.7805 17.9546 11.58 18.139C11.3795 18.3234 11.2435 18.5673 11.192 18.8348C11.064 19.4685 10.9995 20.1134 10.9995 20.7598C10.9986 21.3011 11.0423 21.8414 11.1302 22.3755C11.1739 22.6516 11.3074 22.9055 11.5099 23.0982C11.7125 23.2908 11.9728 23.4113 12.2508 23.4411C12.6772 23.4811 13.0878 23.6227 13.4482 23.8539C13.8086 24.0852 14.1084 24.3995 14.3225 24.7704C14.5366 25.1413 14.6587 25.5581 14.6786 25.9859C14.6985 26.4137 14.6157 26.84 14.437 27.2292C14.3201 27.4824 14.2911 27.7674 14.3546 28.0389C14.4181 28.3104 14.5706 28.553 14.7877 28.728C15.6815 29.4694 16.6952 30.0529 17.7852 30.4536C17.9245 30.5019 18.0708 30.5274 18.2183 30.5292C18.4205 30.5288 18.6197 30.4799 18.7991 30.3866C18.9786 30.2933 19.133 30.1583 19.2495 29.993C19.4946 29.636 19.823 29.3442 20.2064 29.1429C20.5898 28.9416 21.0165 28.8369 21.4495 28.838C21.8691 28.8385 22.2827 28.937 22.6575 29.1256C23.0323 29.3141 23.3578 29.5876 23.6083 29.9242C23.7749 30.1482 24.0108 30.3107 24.2794 30.3866C24.548 30.4624 24.8342 30.4473 25.0933 30.3436C26.0899 29.9425 27.0178 29.3881 27.8433 28.7005C28.0506 28.529 28.1983 28.2962 28.265 28.0356C28.3317 27.7749 28.314 27.4998 28.2145 27.2498C28.0528 26.867 27.9823 26.4519 28.0086 26.0371C28.0348 25.6224 28.1571 25.2195 28.3658 24.8601C28.5745 24.5007 28.8639 24.1948 29.2111 23.9664C29.5583 23.7381 29.9538 23.5935 30.3664 23.5442C30.634 23.5072 30.8828 23.386 31.0769 23.1981C31.2709 23.0102 31.4001 22.7655 31.4458 22.4992C31.5562 21.9258 31.616 21.3438 31.6245 20.7598C31.6247 20.144 31.5671 19.5294 31.4527 18.9242C31.4062 18.6639 31.279 18.4248 31.0889 18.2409C30.8988 18.057 30.6556 17.9377 30.3939 17.8998ZM24.7495 20.7598C24.7495 21.4397 24.5479 22.1043 24.1702 22.6696C23.7925 23.2349 23.2556 23.6755 22.6275 23.9357C21.9994 24.1959 21.3082 24.2639 20.6414 24.1313C19.9746 23.9987 19.3621 23.6713 18.8813 23.1905C18.4006 22.7098 18.0732 22.0973 17.9406 21.4305C17.8079 20.7637 17.876 20.0725 18.1362 19.4444C18.3964 18.8163 18.837 18.2794 19.4023 17.9017C19.9675 17.524 20.6322 17.3223 21.312 17.3223C22.2237 17.3223 23.0981 17.6845 23.7427 18.3292C24.3874 18.9738 24.7495 19.8482 24.7495 20.7598Z" fill="#C6E7F9"/>
<g clip-path="url(#clip0_952_28062)">
<path d="M29.0858 17.6401C28.6846 17.5818 28.3018 17.4338 27.9657 17.207C27.6297 16.9803 27.3492 16.6807 27.145 16.3305C26.9408 15.9803 26.8183 15.5885 26.7865 15.1844C26.7547 14.7802 26.8145 14.3742 26.9614 13.9963C27.0548 13.7493 27.0686 13.4793 27.0008 13.2241C26.933 12.9689 26.787 12.7413 26.5833 12.5732C25.6841 11.8181 24.6605 11.2249 23.5583 10.8201C23.3073 10.7268 23.0333 10.7152 22.7753 10.7868C22.5173 10.8584 22.2885 11.0096 22.1214 11.2188C21.87 11.5403 21.5486 11.8004 21.1818 11.9792C20.8149 12.1581 20.4121 12.251 20.0039 12.251C19.5958 12.251 19.193 12.1581 18.8261 11.9792C18.4592 11.8004 18.1379 11.5403 17.8864 11.2188C17.7194 11.0096 17.4906 10.8584 17.2326 10.7868C16.9746 10.7152 16.7005 10.7268 16.4495 10.8201C15.4318 11.1938 14.4803 11.7276 13.6308 12.4013C13.4167 12.5708 13.2624 12.8045 13.1907 13.068C13.1189 13.3315 13.1334 13.611 13.232 13.8657C13.3907 14.2535 13.4562 14.6731 13.4234 15.0908C13.3906 15.5086 13.2604 15.9128 13.0431 16.2711C12.8259 16.6293 12.5277 16.9317 12.1725 17.154C11.8172 17.3762 11.4149 17.5121 10.9977 17.5507C10.7268 17.5797 10.4724 17.6948 10.2719 17.8792C10.0714 18.0637 9.93539 18.3076 9.88392 18.5751C9.75591 19.2088 9.69142 19.8536 9.69142 20.5001C9.69048 21.0413 9.73417 21.5817 9.82205 22.1157C9.86578 22.3918 9.99925 22.6458 10.2018 22.8384C10.4044 23.031 10.6647 23.1515 10.9427 23.1813C11.3691 23.2213 11.7797 23.3629 12.1401 23.5942C12.5005 23.8254 12.8003 24.1397 13.0144 24.5106C13.2285 24.8815 13.3506 25.2983 13.3705 25.7261C13.3904 26.1539 13.3076 26.5803 13.1289 26.9695C13.012 27.2226 12.983 27.5076 13.0465 27.7791C13.11 28.0507 13.2624 28.2932 13.4795 28.4682C14.3734 29.2096 15.3871 29.7932 16.477 30.1938C16.6164 30.2421 16.7627 30.2676 16.9102 30.2695C17.1124 30.269 17.3116 30.2201 17.491 30.1268C17.6705 30.0335 17.8249 29.8985 17.9414 29.7332C18.1865 29.3762 18.5149 29.0844 18.8983 28.8831C19.2817 28.6818 19.7084 28.5772 20.1414 28.5782C20.561 28.5787 20.9746 28.6772 21.3494 28.8658C21.7242 29.0544 22.0497 29.3279 22.3002 29.6645C22.4668 29.8884 22.7027 30.0509 22.9713 30.1268C23.2399 30.2026 23.5261 30.1875 23.7852 30.0838C24.7818 29.6827 25.7097 29.1283 26.5352 28.4407C26.7425 28.2693 26.8902 28.0365 26.9569 27.7758C27.0236 27.5152 27.0059 27.2401 26.9064 26.9901C26.7447 26.6073 26.6742 26.1921 26.7005 25.7774C26.7267 25.3626 26.849 24.9597 27.0577 24.6003C27.2664 24.241 27.5558 23.935 27.903 23.7067C28.2501 23.4783 28.6457 23.3338 29.0583 23.2845C29.3259 23.2475 29.5747 23.1262 29.7688 22.9384C29.9628 22.7505 30.092 22.5057 30.1377 22.2395C30.2481 21.666 30.3079 21.084 30.3164 20.5001C30.3166 19.8842 30.259 19.2696 30.1445 18.6645C30.0981 18.4041 29.9708 18.165 29.7808 17.9811C29.5907 17.7972 29.3475 17.6779 29.0858 17.6401ZM23.4414 20.5001C23.4414 21.18 23.2398 21.8446 22.8621 22.4099C22.4844 22.9752 21.9475 23.4157 21.3194 23.6759C20.6913 23.9361 20.0001 24.0042 19.3333 23.8715C18.6665 23.7389 18.054 23.4115 17.5732 22.9308C17.0925 22.45 16.7651 21.8375 16.6325 21.1707C16.4998 20.5039 16.5679 19.8127 16.8281 19.1846C17.0883 18.5565 17.5289 18.0196 18.0941 17.6419C18.6594 17.2642 19.324 17.0626 20.0039 17.0626C20.9156 17.0626 21.7899 17.4247 22.4346 18.0694C23.0793 18.7141 23.4414 19.5884 23.4414 20.5001Z" fill="white"/>
</g>
<defs>
<filter id="filter0_ii_952_28062" x="0.00390625" y="0" width="40" height="40" filterUnits="userSpaceOnUse" color-interpolation-filters="sRGB">
<feFlood flood-opacity="0" result="BackgroundImageFix"/>
<feBlend mode="normal" in="SourceGraphic" in2="BackgroundImageFix" result="shape"/>
<feColorMatrix in="SourceAlpha" type="matrix" values="0 0 0 0 0 0 0 0 0 0 0 0 0 0 0 0 0 0 127 0" result="hardAlpha"/>
<feOffset dy="2"/>
<feComposite in2="hardAlpha" operator="arithmetic" k2="-1" k3="1"/>
<feColorMatrix type="matrix" values="0 0 0 0 0.829167 0 0 0 0 0.938988 0 0 0 0 1 0 0 0 1 0"/>
<feBlend mode="normal" in2="shape" result="effect1_innerShadow_952_28062"/>
<feColorMatrix in="SourceAlpha" type="matrix" values="0 0 0 0 0 0 0 0 0 0 0 0 0 0 0 0 0 0 127 0" result="hardAlpha"/>
<feOffset dy="-2"/>
<feComposite in2="hardAlpha" operator="arithmetic" k2="-1" k3="1"/>
<feColorMatrix type="matrix" values="0 0 0 0 0.638802 0 0 0 0 0.824635 0 0 0 0 0.929167 0 0 0 1 0"/>
<feBlend mode="normal" in2="effect1_innerShadow_952_28062" result="effect2_innerShadow_952_28062"/>
</filter>
<filter id="filter1_f_952_28062" x="-22.4961" y="-12.5" width="57.5" height="57.5" filterUnits="userSpaceOnUse" color-interpolation-filters="sRGB">
<feFlood flood-opacity="0" result="BackgroundImageFix"/>
<feBlend mode="normal" in="SourceGraphic" in2="BackgroundImageFix" result="shape"/>
<feGaussianBlur stdDeviation="7.5" result="effect1_foregroundBlur_952_28062"/>
</filter>
<filter id="filter2_f_952_28062" x="7.50391" y="-2.5" width="57.5" height="57.5" filterUnits="userSpaceOnUse" color-interpolation-filters="sRGB">
<feFlood flood-opacity="0" result="BackgroundImageFix"/>
<feBlend mode="normal" in="SourceGraphic" in2="BackgroundImageFix" result="shape"/>
<feGaussianBlur stdDeviation="7.5" result="effect1_foregroundBlur_952_28062"/>
</filter>
<clipPath id="clip0_952_28062">
<rect width="22" height="22" fill="white" transform="translate(9.00391 9.5)"/>
</clipPath>
</defs>
</svg>
