<svg width="41" height="40" viewBox="0 0 41 40" fill="none" xmlns="http://www.w3.org/2000/svg">
<g filter="url(#filter0_ii_2802_111957)">
<circle cx="20" cy="20" r="20" transform="matrix(-1 0 0 1 40.0044 0)" fill="#FF773D"/>
</g>
<mask id="mask0_2802_111957" style="mask-type:alpha" maskUnits="userSpaceOnUse" x="0" y="0" width="40" height="41">
<circle cx="20" cy="20" r="20" transform="matrix(-1 0 0 1 40 0.164551)" fill="#5DADF8"/>
</mask>
<g mask="url(#mask0_2802_111957)">
<g filter="url(#filter1_f_2802_111957)">
<circle cx="12.4138" cy="12.4138" r="12.4138" transform="matrix(-1 0 0 1 17.9307 -8.39868)" fill="#FFDF39"/>
</g>
<g filter="url(#filter2_f_2802_111957)">
<circle cx="12.4138" cy="12.4138" r="12.4138" transform="matrix(-1 0 0 1 53.7935 12.2915)" fill="#FFDF39"/>
</g>
</g>
<g clip-path="url(#clip0_2802_111957)">
<path d="M29.5755 16.7224C29.1744 16.6641 28.7915 16.5161 28.4555 16.2893C28.1195 16.0626 27.8389 15.7629 27.6347 15.4127C27.4306 15.0625 27.308 14.6708 27.2762 14.2666C27.2445 13.8625 27.3042 13.4564 27.4512 13.0786C27.5446 12.8316 27.5583 12.5616 27.4905 12.3064C27.4227 12.0511 27.2767 11.8236 27.073 11.6555C26.1738 10.9004 25.1503 10.3072 24.048 9.90236C23.7971 9.80912 23.523 9.79747 23.265 9.86907C23.007 9.94067 22.7782 10.0919 22.6112 10.3011C22.3597 10.6226 22.0384 10.8827 21.6715 11.0615C21.3046 11.2403 20.9018 11.3333 20.4937 11.3333C20.0855 11.3333 19.6827 11.2403 19.3158 11.0615C18.9489 10.8827 18.6276 10.6226 18.3762 10.3011C18.2091 10.0919 17.9803 9.94067 17.7223 9.86907C17.4643 9.79747 17.1903 9.80912 16.9393 9.90236C15.9216 10.2761 14.97 10.8099 14.1205 11.4836C13.9064 11.6531 13.7522 11.8867 13.6804 12.1502C13.6087 12.4138 13.6232 12.6933 13.7218 12.948C13.8804 13.3358 13.946 13.7554 13.9132 14.1731C13.8804 14.5908 13.7501 14.995 13.5329 15.3533C13.3156 15.7116 13.0174 16.014 12.6622 16.2362C12.307 16.4585 11.9046 16.5943 11.4874 16.633C11.2165 16.6619 10.9621 16.7771 10.7616 16.9615C10.5611 17.1459 10.4251 17.3899 10.3737 17.6574C10.2457 18.291 10.1812 18.9359 10.1812 19.5824C10.1802 20.1236 10.2239 20.6639 10.3118 21.198C10.3555 21.4741 10.489 21.728 10.6916 21.9207C10.8941 22.1133 11.1545 22.2338 11.4324 22.2636C11.8588 22.3036 12.2694 22.4452 12.6298 22.6765C12.9903 22.9077 13.2901 23.222 13.5042 23.5929C13.7182 23.9638 13.8403 24.3806 13.8602 24.8084C13.8802 25.2362 13.7973 25.6625 13.6187 26.0517C13.5017 26.3049 13.4727 26.5899 13.5363 26.8614C13.5998 27.1329 13.7522 27.3755 13.9693 27.5505C14.8631 28.2919 15.8768 28.8754 16.9668 29.2761C17.1062 29.3244 17.2524 29.3499 17.3999 29.3517C17.6022 29.3513 17.8013 29.3024 17.9808 29.2091C18.1602 29.1158 18.3147 28.9808 18.4312 28.8155C18.6762 28.4585 19.0047 28.1667 19.3881 27.9654C19.7714 27.7641 20.1982 27.6594 20.6312 27.6605C21.0507 27.661 21.4643 27.7595 21.8391 27.9481C22.2139 28.1367 22.5395 28.4101 22.7899 28.7467C22.9565 28.9707 23.1925 29.1332 23.4611 29.2091C23.7297 29.2849 24.0158 29.2698 24.2749 29.1661C25.2716 28.765 26.1994 28.2106 27.0249 27.523C27.2323 27.3515 27.3799 27.1188 27.4466 26.8581C27.5133 26.5974 27.4957 26.3223 27.3962 26.0724C27.2345 25.6895 27.164 25.2744 27.1902 24.8597C27.2165 24.4449 27.3388 24.042 27.5475 23.6826C27.7561 23.3232 28.0455 23.0173 28.3927 22.7889C28.7399 22.5606 29.1354 22.416 29.548 22.3667C29.8156 22.3297 30.0644 22.2085 30.2585 22.0206C30.4526 21.8327 30.5818 21.588 30.6274 21.3217C30.7378 20.7483 30.7976 20.1663 30.8062 19.5824C30.8063 18.9665 30.7488 18.3519 30.6343 17.7467C30.5879 17.4864 30.4606 17.2473 30.2705 17.0634C30.0805 16.8795 29.8373 16.7602 29.5755 16.7224ZM23.9312 19.5824C23.9312 20.2622 23.7296 20.9268 23.3518 21.4921C22.9741 22.0574 22.4373 22.498 21.8091 22.7582C21.181 23.0184 20.4899 23.0864 19.823 22.9538C19.1562 22.8212 18.5437 22.4938 18.063 22.013C17.5822 21.5323 17.2549 20.9198 17.1222 20.253C16.9896 19.5862 17.0577 18.895 17.3178 18.2669C17.578 17.6388 18.0186 17.1019 18.5839 16.7242C19.1492 16.3465 19.8138 16.1449 20.4937 16.1449C21.4054 16.1449 22.2797 16.507 22.9243 17.1517C23.569 17.7963 23.9312 18.6707 23.9312 19.5824Z" fill="url(#paint0_linear_2802_111957)"/>
</g>
<defs>
<filter id="filter0_ii_2802_111957" x="0.00439453" y="0" width="40" height="40" filterUnits="userSpaceOnUse" color-interpolation-filters="sRGB">
<feFlood flood-opacity="0" result="BackgroundImageFix"/>
<feBlend mode="normal" in="SourceGraphic" in2="BackgroundImageFix" result="shape"/>
<feColorMatrix in="SourceAlpha" type="matrix" values="0 0 0 0 0 0 0 0 0 0 0 0 0 0 0 0 0 0 127 0" result="hardAlpha"/>
<feOffset dy="2"/>
<feComposite in2="hardAlpha" operator="arithmetic" k2="-1" k3="1"/>
<feColorMatrix type="matrix" values="0 0 0 0 1 0 0 0 0 0.732301 0 0 0 0 0.5 0 0 0 1 0"/>
<feBlend mode="normal" in2="shape" result="effect1_innerShadow_2802_111957"/>
<feColorMatrix in="SourceAlpha" type="matrix" values="0 0 0 0 0 0 0 0 0 0 0 0 0 0 0 0 0 0 127 0" result="hardAlpha"/>
<feOffset dy="-2"/>
<feComposite in2="hardAlpha" operator="arithmetic" k2="-1" k3="1"/>
<feColorMatrix type="matrix" values="0 0 0 0 0 0 0 0 0 0 0 0 0 0 0 0 0 0 0.13 0"/>
<feBlend mode="normal" in2="effect1_innerShadow_2802_111957" result="effect2_innerShadow_2802_111957"/>
</filter>
<filter id="filter1_f_2802_111957" x="-21.897" y="-23.3987" width="54.8276" height="54.8276" filterUnits="userSpaceOnUse" color-interpolation-filters="sRGB">
<feFlood flood-opacity="0" result="BackgroundImageFix"/>
<feBlend mode="normal" in="SourceGraphic" in2="BackgroundImageFix" result="shape"/>
<feGaussianBlur stdDeviation="7.5" result="effect1_foregroundBlur_2802_111957"/>
</filter>
<filter id="filter2_f_2802_111957" x="13.9658" y="-2.7085" width="54.8276" height="54.8276" filterUnits="userSpaceOnUse" color-interpolation-filters="sRGB">
<feFlood flood-opacity="0" result="BackgroundImageFix"/>
<feBlend mode="normal" in="SourceGraphic" in2="BackgroundImageFix" result="shape"/>
<feGaussianBlur stdDeviation="7.5" result="effect1_foregroundBlur_2802_111957"/>
</filter>
<linearGradient id="paint0_linear_2802_111957" x1="20.4937" y1="9.82275" x2="20.4937" y2="29.3517" gradientUnits="userSpaceOnUse">
<stop stop-color="#FFEECE"/>
<stop offset="0.489583" stop-color="#FFF1C2"/>
<stop offset="1" stop-color="#FFF6C8"/>
</linearGradient>
<clipPath id="clip0_2802_111957">
<rect width="24" height="24" fill="white" transform="translate(7.99805 8.08228)"/>
</clipPath>
</defs>
</svg>
