<svg width="20" height="17" viewBox="0 0 20 17" fill="none" xmlns="http://www.w3.org/2000/svg">
<g filter="url(#filter0_i_2712_23418)">
<path d="M6.53981 15C8.07941 17.6667 11.9284 17.6667 13.468 15L18.6642 6C20.2038 3.33333 18.2793 0 15.2001 0H4.80775C1.72855 0 -0.195948 3.33333 1.34365 6L6.53981 15Z" fill="url(#paint0_linear_2712_23418)"/>
</g>
<path d="M7.40583 14.5C8.56053 16.5 11.4473 16.5 12.602 14.5L17.7981 5.5C18.9528 3.5 17.5095 1 15.2001 1H4.80775C2.49835 1 1.05498 3.5 2.20968 5.5L7.40583 14.5Z" stroke="url(#paint1_linear_2712_23418)" stroke-width="2"/>
<defs>
<filter id="filter0_i_2712_23418" x="0.802734" y="0" width="18.4023" height="17" filterUnits="userSpaceOnUse" color-interpolation-filters="sRGB">
<feFlood flood-opacity="0" result="BackgroundImageFix"/>
<feBlend mode="normal" in="SourceGraphic" in2="BackgroundImageFix" result="shape"/>
<feColorMatrix in="SourceAlpha" type="matrix" values="0 0 0 0 0 0 0 0 0 0 0 0 0 0 0 0 0 0 127 0" result="hardAlpha"/>
<feOffset/>
<feGaussianBlur stdDeviation="2"/>
<feComposite in2="hardAlpha" operator="arithmetic" k2="-1" k3="1"/>
<feColorMatrix type="matrix" values="0 0 0 0 0.975 0 0 0 0 0.445402 0 0 0 0 0.223438 0 0 0 1 0"/>
<feBlend mode="normal" in2="shape" result="effect1_innerShadow_2712_23418"/>
</filter>
<linearGradient id="paint0_linear_2712_23418" x1="10.0039" y1="19.25" x2="10.0039" y2="-2.91667" gradientUnits="userSpaceOnUse">
<stop offset="0.181672" stop-color="#FFA115"/>
<stop offset="1" stop-color="#FF6320"/>
</linearGradient>
<linearGradient id="paint1_linear_2712_23418" x1="10.0039" y1="18.6667" x2="10.0039" y2="-1.75" gradientUnits="userSpaceOnUse">
<stop stop-color="#FF7D2B"/>
<stop offset="1" stop-color="#FFAD32"/>
</linearGradient>
</defs>
</svg>
