<svg width="25" height="24" viewBox="0 0 25 24" fill="none" xmlns="http://www.w3.org/2000/svg">
<g clip-path="url(#clip0_886_23845)">
<path d="M11.7993 18.7895H13.2403C13.2403 18.7895 13.6759 18.7415 13.8974 18.5029C14.1024 18.2839 14.0949 17.8729 14.0949 17.8729C14.0949 17.8729 14.0663 15.9482 14.9646 15.6647C15.8494 15.3857 16.9859 17.5249 18.1902 18.3484C19.1006 18.971 19.7924 18.8345 19.7924 18.8345L23.0135 18.7895C23.0135 18.7895 24.6986 18.686 23.8998 17.3674C23.8349 17.2593 23.434 16.3923 21.5047 14.6101C19.4849 12.744 19.7562 13.047 22.189 9.82029C23.6706 7.85515 24.263 6.65506 24.0776 6.14202C23.9013 5.65298 22.8115 5.78199 22.8115 5.78199L19.188 5.803C19.188 5.803 18.9197 5.76699 18.7192 5.8855C18.5248 6.00251 18.3997 6.27253 18.3997 6.27253C18.3997 6.27253 17.8254 7.79364 17.0597 9.08674C15.4454 11.8154 14.7988 11.9595 14.535 11.7899C13.9216 11.3954 14.0753 10.2028 14.0753 9.35676C14.0753 6.71206 14.4778 5.60948 13.29 5.32446C12.8951 5.22995 12.6057 5.16695 11.5973 5.15645C10.3041 5.14295 9.2083 5.16095 8.58881 5.46247C8.17582 5.66349 7.85778 6.11202 8.05222 6.13752C8.29188 6.16902 8.8345 6.28303 9.12239 6.67306C9.49469 7.1756 9.48112 8.30668 9.48112 8.30668C9.48112 8.30668 9.69516 11.4194 8.98221 11.8064C8.49235 12.072 7.82161 11.5304 6.38216 9.05374C5.6451 7.78614 5.0874 6.38354 5.0874 6.38354C5.0874 6.38354 4.98039 6.12252 4.78896 5.98301C4.55684 5.8135 4.23127 5.75949 4.23127 5.75949L0.785629 5.78049C0.785629 5.78049 0.268632 5.7955 0.078715 6.01901C-0.0901002 6.21853 0.0651495 6.62956 0.0651495 6.62956C0.0651495 6.62956 2.76318 12.9105 5.81693 16.0773C8.61896 18.98 11.7993 18.7895 11.7993 18.7895Z" fill="#1E88E5"/>
</g>
<defs>
<clipPath id="clip0_886_23845">
<rect width="24.1147" height="24" fill="white"/>
</clipPath>
</defs>
</svg>
